<svg width="12" height="16" viewBox="0 0 12 16" fill="none" xmlns="http://www.w3.org/2000/svg">
<path d="M6 4.66675C6.35362 4.66675 6.69276 4.52627 6.94281 4.27622C7.19286 4.02618 7.33333 3.68704 7.33333 3.33341C7.33333 3.08008 7.26667 2.84675 7.14 2.64675L6 0.666748L4.86 2.64675C4.73333 2.84675 4.66667 3.08008 4.66667 3.33341C4.66667 4.06675 5.26667 4.66675 6 4.66675ZM10 6.66675H6.66667V5.33342H5.33333V6.66675H2C0.893333 6.66675 0 7.56008 0 8.66675V14.6667C0 15.0334 0.3 15.3334 0.666667 15.3334H11.3333C11.7 15.3334 12 15.0334 12 14.6667V8.66675C12 7.56008 11.1067 6.66675 10 6.66675ZM10.6667 14.0001H1.33333V12.0001C1.93333 12.0001 2.50667 11.7534 2.93333 11.3334L3.66667 10.6134L4.37333 11.3334C5.24667 12.2001 6.76667 12.1934 7.63333 11.3334L8.35333 10.6134L9.06667 11.3334C9.49333 11.7534 10.0667 12.0001 10.6667 12.0001V14.0001ZM10.6667 11.0001C10.3333 11.0001 10 10.8667 9.76667 10.6201L8.33333 9.20008L6.92 10.6201C6.42667 11.1134 5.56667 11.1134 5.07333 10.6201L3.66667 9.20008L2.22667 10.6201C2 10.8601 1.66667 11.0001 1.33333 11.0001V8.66675C1.33333 8.30008 1.63333 8.00008 2 8.00008H10C10.3667 8.00008 10.6667 8.30008 10.6667 8.66675V11.0001Z" fill="#FF9955"/>
</svg>
