<svg width="21" height="21" viewBox="0 0 21 21" fill="none" xmlns="http://www.w3.org/2000/svg">
<path d="M17.4172 1.31533C17.2219 1.31533 17.0148 1.32861 16.7961 1.35244C16.3664 2.0165 15.9797 2.65088 15.8781 3.26377L15.1828 3.14893C15.2805 2.56025 15.5422 2.02314 15.8508 1.51377C15.8156 1.52119 15.7844 1.52783 15.7492 1.53604C14.3351 1.8708 12.6516 2.56064 10.9641 3.46807C10.7531 3.58096 10.5422 3.69775 10.3351 3.81729C10.3039 4.01143 10.2648 4.24619 10.2141 4.504C10.0891 5.14072 9.90937 5.879 9.5578 6.38291C9.10858 7.01572 8.28436 7.57041 7.5578 8.00791C6.83124 8.44541 6.20233 8.74619 6.20233 8.74619L5.89765 8.11338C5.89765 8.11338 6.49921 7.82432 7.19452 7.40635C7.88983 6.98447 8.67108 6.41416 8.97968 5.97666C9.19843 5.66807 9.40546 4.96885 9.52655 4.36729C9.53046 4.33994 9.53827 4.3126 9.54218 4.28525C6.6789 6.03916 4.02304 8.32041 2.84921 10.3321C2.25937 11.3478 1.93358 12.6212 1.94647 13.879C2.48397 12.8556 3.08007 11.8165 4.06796 10.8399L4.56249 11.3399C3.37382 12.5157 2.79218 13.8165 2.08163 15.1446C2.31171 16.2462 2.83983 17.2462 3.70624 17.9493C3.86405 18.0782 4.03788 18.1993 4.22538 18.3087C4.29374 18.0665 4.39218 17.7384 4.5164 17.3829C4.76874 16.6603 5.09687 15.8282 5.58124 15.3126C6.16718 14.6915 6.97968 14.4767 7.71015 14.2579C8.44062 14.0431 9.08515 13.8282 9.47577 13.3751C9.83905 12.9454 10.175 11.9649 10.3742 11.1134C10.5734 10.2657 10.6633 9.54307 10.6633 9.54307L11.3586 9.629C11.3586 9.629 11.2687 10.3829 11.0578 11.2735C10.8508 12.1642 10.5539 13.1915 10.007 13.8282C9.45233 14.4806 8.64374 14.7149 7.90936 14.9337C7.17499 15.1524 6.50702 15.3595 6.09686 15.797C5.77655 16.1368 5.41718 16.9259 5.1789 17.6134C5.03436 18.0313 4.9289 18.3946 4.8664 18.6251C5.41718 18.8556 6.04218 19.0157 6.69452 19.1056C7.04608 18.5431 7.34296 18.2384 7.8703 16.1017L8.54999 16.2735C8.09687 18.0978 7.77655 18.7032 7.47968 19.1759C8.89374 19.2384 10.3469 18.9688 11.3859 18.4063C14.3273 16.797 16.7844 12.9337 18.1711 9.27354C18.4367 8.57432 18.6594 7.88291 18.8469 7.21494C18.1476 7.8126 17.5656 8.46494 17.2414 9.28916L16.5851 9.03135C17.093 7.7501 18.0773 6.86729 19.1242 6.08213C19.2609 5.43369 19.3547 4.82432 19.3976 4.27354C19.4172 4.00713 19.4289 3.75439 19.425 3.51807C19.1711 3.66104 18.882 3.82705 18.5773 4.01455C17.6242 4.60166 16.55 5.39463 16.1242 6.04307C15.925 6.34385 15.8898 6.78135 15.8625 7.28916C15.8351 7.80088 15.8234 8.379 15.4875 8.89072C15.1828 9.35947 14.7101 9.60166 14.2961 9.8165C13.882 10.0313 13.5226 10.2267 13.3195 10.4962C12.9172 11.0274 12.507 12.0978 12.2297 13.0118C11.9484 13.922 11.7844 14.6837 11.7844 14.6837L11.0969 14.5353C11.0969 14.5353 11.2687 13.7462 11.5578 12.8048C11.843 11.8634 12.2336 10.7696 12.757 10.0743C13.0891 9.63291 13.5617 9.40635 13.9719 9.19541C14.3781 8.98057 14.718 8.78525 14.9016 8.50791C15.0969 8.20322 15.1359 7.76182 15.1594 7.254C15.1867 6.74619 15.2023 6.16416 15.5383 5.65635V5.65244C16.1047 4.80088 17.2219 4.02432 18.2101 3.41611C18.6437 3.14893 19.0461 2.92197 19.3703 2.74775C19.3586 2.67002 19.343 2.59541 19.3273 2.52471C19.2258 2.07275 19.0539 1.78838 18.8586 1.65283C18.5734 1.45283 18.1516 1.33994 17.6203 1.31885C17.5539 1.31494 17.4875 1.31494 17.4172 1.31494V1.31533ZM13.0031 3.61611L13.6828 3.79189C13.6828 3.79189 13.5226 4.41025 13.2648 5.14463C13.0031 5.88291 12.6633 6.73057 12.1984 7.26963C11.3898 8.21885 10.2531 8.71104 9.17108 9.18369C8.08905 9.65635 7.06171 10.1173 6.3703 10.8946V10.8985C5.83124 11.5079 5.24921 12.7462 4.83515 13.8087C4.41601 14.8751 4.14843 15.7696 4.14843 15.7696L3.47499 15.5665C3.47499 15.5665 3.74999 14.6485 4.1789 13.5548C4.60858 12.461 5.17108 11.1954 5.84687 10.4337C6.66718 9.49619 7.8078 9.01572 8.88983 8.53916C9.97186 8.0665 10.9914 7.60557 11.6672 6.8165C11.9875 6.4376 12.3508 5.61729 12.6008 4.91025C12.8508 4.20713 13.0031 3.61611 13.0031 3.61611ZM8.40546 10.922L9.10077 11.0235C8.9914 11.7813 8.63983 12.3438 8.19452 12.7501C7.74921 13.1524 7.21796 13.4181 6.71405 13.6681L6.40155 13.0431C6.90155 12.7892 7.3703 12.547 7.72187 12.2267C8.07343 11.9103 8.31952 11.5313 8.40546 10.922ZM15.4484 11.2071L16.0891 11.4884C16.0891 11.4884 15.7141 12.3478 15.1672 13.3517C14.6203 14.3595 13.9211 15.5157 13.175 16.1759C12.6437 16.6485 11.8078 17.0196 11.0812 17.3048C10.3547 17.5938 9.7453 17.7774 9.7453 17.7774L9.54218 17.1056C9.54218 17.1056 10.1281 16.9298 10.8234 16.6524C11.5187 16.379 12.3312 15.9884 12.7062 15.6524C13.3039 15.1251 14.0148 13.9962 14.55 13.0196C15.0812 12.0392 15.4484 11.2071 15.4484 11.2071Z" fill="#F39C12"/>
</svg>
