<svg width="18" height="16" viewBox="0 0 18 16" fill="none" xmlns="http://www.w3.org/2000/svg">
<path d="M16.53 8.53063L10.5303 14.5303C10.2374 14.8232 9.76256 14.8232 9.46967 14.5303C9.17678 14.2374 9.17678 13.7626 9.46967 13.4697L14.1893 8.75H2C1.58579 8.75 1.25 8.41421 1.25 8C1.25 7.58579 1.58579 7.25 2 7.25H14.1893L9.46967 2.53033C9.17678 2.23744 9.17678 1.76256 9.46967 1.46967C9.76256 1.17678 10.2374 1.17678 10.5303 1.46967L16.53 7.46937C16.5301 7.46947 16.5302 7.46957 16.5303 7.46967L16.53 8.53063ZM16.53 8.53063C16.5301 8.53053 16.5302 8.53043 16.5303 8.53033L16.53 8.53063ZM16.6931 8.28709C16.6568 8.37489 16.603 8.4572 16.5319 8.52874L16.6931 8.28709ZM16.6931 8.28709C16.7298 8.19866 16.75 8.10169 16.75 8C16.75 7.89831 16.7298 7.80134 16.6931 7.71291C16.6568 7.62511 16.603 7.5428 16.5319 7.47126L16.6931 8.28709Z" fill="#D35400" stroke="white" stroke-width="1.5" stroke-linecap="round" stroke-linejoin="round"/>
</svg>
