<svg width="70" height="70" viewBox="0 0 70 70" fill="none" xmlns="http://www.w3.org/2000/svg">
<path d="M8.75 17.8646C8.75 15.4472 9.71028 13.1289 11.4196 11.4196C13.1289 9.71028 15.4472 8.75 17.8646 8.75H52.1354C54.5528 8.75 56.8711 9.71028 58.5804 11.4196C60.2897 13.1289 61.25 15.4472 61.25 17.8646V52.1354C61.25 54.5528 60.2897 56.8711 58.5804 58.5804C56.8711 60.2897 54.5528 61.25 52.1354 61.25H17.8646C15.4472 61.25 13.1289 60.2897 11.4196 58.5804C9.71028 56.8711 8.75 54.5528 8.75 52.1354V17.8646ZM12.3958 52.1354C12.3958 53.5858 12.972 54.9768 13.9976 56.0024C15.0232 57.028 16.4142 57.6042 17.8646 57.6042H52.1354C53.5858 57.6042 54.9768 57.028 56.0024 56.0024C57.028 54.9768 57.6042 53.5858 57.6042 52.1354V26.9792H12.3958V52.1354ZM12.3958 17.8646V23.3333H57.6042V17.8646C57.6042 16.4142 57.028 15.0232 56.0024 13.9976C54.9768 12.972 53.5858 12.3958 52.1354 12.3958H17.8646C16.4142 12.3958 15.0232 12.972 13.9976 13.9976C12.972 15.0232 12.3958 16.4142 12.3958 17.8646ZM23.3333 20.7812C24.1069 20.7812 24.8487 20.474 25.3957 19.927C25.9427 19.38 26.25 18.6381 26.25 17.8646C26.25 17.091 25.9427 16.3492 25.3957 15.8022C24.8487 15.2552 24.1069 14.9479 23.3333 14.9479C22.5598 14.9479 21.8179 15.2552 21.2709 15.8022C20.724 16.3492 20.4167 17.091 20.4167 17.8646C20.4167 18.6381 20.724 19.38 21.2709 19.927C21.8179 20.474 22.5598 20.7812 23.3333 20.7812ZM35 20.7812C35.7735 20.7812 36.5154 20.474 37.0624 19.927C37.6094 19.38 37.9167 18.6381 37.9167 17.8646C37.9167 17.091 37.6094 16.3492 37.0624 15.8022C36.5154 15.2552 35.7735 14.9479 35 14.9479C34.2265 14.9479 33.4846 15.2552 32.9376 15.8022C32.3906 16.3492 32.0833 17.091 32.0833 17.8646C32.0833 18.6381 32.3906 19.38 32.9376 19.927C33.4846 20.474 34.2265 20.7812 35 20.7812ZM49.5833 17.8646C49.5833 18.6381 49.276 19.38 48.7291 19.927C48.1821 20.474 47.4402 20.7812 46.6667 20.7812C45.8931 20.7812 45.1513 20.474 44.6043 19.927C44.0573 19.38 43.75 18.6381 43.75 17.8646C43.75 17.091 44.0573 16.3492 44.6043 15.8022C45.1513 15.2552 45.8931 14.9479 46.6667 14.9479C47.4402 14.9479 48.1821 15.2552 48.7291 15.8022C49.276 16.3492 49.5833 17.091 49.5833 17.8646ZM19.6875 50.3125V34.2708H50.3125V50.3125H19.6875ZM18.5938 30.625C17.9169 30.625 17.2678 30.8939 16.7892 31.3725C16.3105 31.8511 16.0417 32.5002 16.0417 33.1771V51.4062C16.0417 52.8165 17.185 53.9583 18.5938 53.9583H51.4062C52.0831 53.9583 52.7322 53.6895 53.2108 53.2108C53.6895 52.7322 53.9583 52.0831 53.9583 51.4062V33.1771C53.9583 32.5002 53.6895 31.8511 53.2108 31.3725C52.7322 30.8939 52.0831 30.625 51.4062 30.625H18.5938Z" fill="#F39C12"/>
</svg>
