<svg width="21" height="21" viewBox="0 0 21 21" fill="none" xmlns="http://www.w3.org/2000/svg">
<path d="M16.6305 2.62743C13.9461 1.09618 10.5142 2.00493 8.96421 4.65555L8.75358 5.0168C8.7174 5.07813 8.69386 5.14608 8.68434 5.21665C8.67482 5.28722 8.67952 5.35898 8.69815 5.4277C8.71679 5.49643 8.74899 5.56073 8.79286 5.61682C8.83673 5.67291 8.89137 5.71965 8.95358 5.7543L12.9348 8.02493L10.5523 12.1424H10.5023C8.20046 12.1424 6.20671 13.4612 5.01858 15.3256C5.22167 15.2547 5.43781 15.2292 5.65181 15.2508C5.86582 15.2723 6.0725 15.3405 6.25733 15.4506C7.28608 14.1068 8.82171 13.2224 10.503 13.2224C12.2555 13.2224 13.8498 14.1831 14.8773 15.6243C15.0199 15.4948 15.1867 15.3946 15.368 15.3295C15.5494 15.2644 15.7418 15.2357 15.9342 15.2449C14.9636 13.7637 13.4792 12.6387 11.7373 12.2712L13.8823 8.56493L17.7261 10.7568C17.8517 10.828 18.0002 10.8472 18.1398 10.8103C18.2794 10.7734 18.399 10.6833 18.473 10.5593L18.6842 10.1981C20.2336 7.54743 19.3148 4.15743 16.6305 2.62743ZM15.033 7.97368L12.7317 6.66118C13.1492 6.0268 13.5455 5.54368 14.0211 5.1168C14.4836 4.70118 15.0367 4.32493 15.7861 3.91618C15.8967 4.60368 15.9305 5.17618 15.8592 5.73743C15.7748 6.40868 15.5342 7.09993 15.033 7.97368ZM15.9798 8.51368C16.5336 7.55055 16.8373 6.72118 16.9448 5.87118C17.0148 5.3143 16.9992 4.7643 16.9286 4.18368C18.3873 5.54305 18.7892 7.74368 17.7973 9.55055L15.9798 8.51368ZM13.2855 4.31743C12.7086 4.83555 12.2461 5.41118 11.7836 6.12118L9.97546 5.08993C11.0411 3.37493 13.1067 2.61368 14.9961 3.11618C14.3192 3.5018 13.768 3.8843 13.2855 4.31743ZM6.02421 16.5137C5.98607 16.4019 5.9127 16.3054 5.81512 16.2388C5.71753 16.1722 5.60098 16.1391 5.48296 16.1443C5.36507 16.1486 5.25175 16.1909 5.16002 16.2651C5.06828 16.3393 5.00308 16.4412 4.97421 16.5556C4.78858 17.3056 4.43671 17.7168 4.03546 17.9562C3.61546 18.2062 3.08108 18.3037 2.48358 18.3037C2.33948 18.3028 2.20094 18.3593 2.09839 18.4605C1.99585 18.5618 1.9377 18.6996 1.93671 18.8437C1.9377 18.9878 1.99585 19.1256 2.09839 19.2268C2.20094 19.3281 2.33948 19.3845 2.48358 19.3837C3.18108 19.3837 3.94171 19.2737 4.60046 18.8812C4.99282 18.6478 5.32436 18.3248 5.56796 17.9387C6.87233 19.5818 9.41796 19.5731 10.6848 17.9212C11.9717 19.5993 14.5786 19.5818 15.863 17.8593C16.573 18.8237 17.7305 19.3837 18.8867 19.3837C19.0307 19.3843 19.1691 19.3279 19.2715 19.2266C19.3739 19.1254 19.432 18.9877 19.433 18.8437C19.432 18.6997 19.3739 18.562 19.2715 18.4607C19.1691 18.3595 19.0307 18.303 18.8867 18.3037C17.8117 18.3037 16.7398 17.6124 16.3855 16.5193C16.3496 16.4103 16.2803 16.3153 16.1874 16.2479C16.0945 16.1804 15.9827 16.144 15.868 16.1437C15.7531 16.1427 15.6409 16.1779 15.5472 16.2443C15.4535 16.3107 15.3831 16.405 15.3461 16.5137C14.6436 18.6074 11.8911 18.5812 11.2023 16.6012C11.1647 16.4941 11.0946 16.4014 11.0019 16.336C10.9091 16.2706 10.7983 16.2357 10.6848 16.2362C10.5715 16.2358 10.4609 16.2707 10.3683 16.336C10.2757 16.4012 10.2057 16.4937 10.168 16.6006C9.47858 18.5818 6.72671 18.6081 6.02421 16.5137Z" fill="#F39C12"/>
</svg>
