<svg width="70" height="70" viewBox="0 0 70 70" fill="none" xmlns="http://www.w3.org/2000/svg">
<path d="M23.3333 64.1666C21.7292 64.1666 20.3554 63.5949 19.2121 62.4516C18.0688 61.3083 17.4981 59.9355 17.5 58.3333V55.4166C17.5 53.1319 17.9988 51.0173 18.9963 49.0728C19.9938 47.1284 21.2936 45.4999 22.8958 44.1874L21.1458 32.0833H14.5833C12.9792 32.0833 11.6054 31.5116 10.4621 30.3683C9.31875 29.2249 8.74806 27.8521 8.75 26.2499V14.5833C8.75 12.9791 9.32167 11.6053 10.465 10.462C11.6083 9.31867 12.9811 8.74797 14.5833 8.74992H29.1667V5.83325H40.8333V8.74992H52.5L47.1042 44.1874C48.7083 45.4999 50.0092 47.1284 51.0067 49.0728C52.0042 51.0173 52.5019 53.1319 52.5 55.4166V58.3333C52.5 59.9374 51.9283 61.3112 50.785 62.4545C49.6417 63.5978 48.2689 64.1685 46.6667 64.1666H23.3333ZM20.2708 26.2499L18.375 14.5833H14.5833V26.2499H20.2708ZM35 55.4166C35.8264 55.4166 36.5196 55.1366 37.0796 54.5766C37.6396 54.0166 37.9186 53.3244 37.9167 52.4999C37.9167 51.6735 37.6367 50.9803 37.0767 50.4203C36.5167 49.8603 35.8245 49.5813 35 49.5833C34.1736 49.5833 33.4804 49.8633 32.9204 50.4233C32.3604 50.9833 32.0814 51.6755 32.0833 52.4999C32.0833 53.3263 32.3633 54.0195 32.9233 54.5795C33.4833 55.1395 34.1756 55.4185 35 55.4166ZM28.2917 40.8333H41.7083L45.6458 14.5833H24.3542L28.2917 40.8333ZM23.3333 58.3333H46.6667V55.4166C46.6667 52.986 45.816 50.9201 44.1146 49.2187C42.4132 47.5173 40.3472 46.6666 37.9167 46.6666H32.0833C29.6528 46.6666 27.5868 47.5173 25.8854 49.2187C24.184 50.9201 23.3333 52.986 23.3333 55.4166V58.3333Z" fill="#F39C12"/>
</svg>
