<svg width="30" height="30" viewBox="0 0 30 30" fill="none" xmlns="http://www.w3.org/2000/svg">
<path d="M26.25 5.625H18.75C18.0223 5.625 17.3046 5.79443 16.6537 6.11987C16.0028 6.44531 15.4366 6.91783 15 7.5C14.5634 6.91783 13.9972 6.44531 13.3463 6.11987C12.6954 5.79443 11.9777 5.625 11.25 5.625H3.75C3.25272 5.625 2.77581 5.82254 2.42417 6.17417C2.07254 6.52581 1.875 7.00272 1.875 7.5V22.5C1.875 22.9973 2.07254 23.4742 2.42417 23.8258C2.77581 24.1775 3.25272 24.375 3.75 24.375H11.25C11.9959 24.375 12.7113 24.6713 13.2387 25.1988C13.7662 25.7262 14.0625 26.4416 14.0625 27.1875C14.0625 27.4361 14.1613 27.6746 14.3371 27.8504C14.5129 28.0262 14.7514 28.125 15 28.125C15.2486 28.125 15.4871 28.0262 15.6629 27.8504C15.8387 27.6746 15.9375 27.4361 15.9375 27.1875C15.9375 26.4416 16.2338 25.7262 16.7613 25.1988C17.2887 24.6713 18.0041 24.375 18.75 24.375H26.25C26.7473 24.375 27.2242 24.1775 27.5758 23.8258C27.9275 23.4742 28.125 22.9973 28.125 22.5V7.5C28.125 7.00272 27.9275 6.52581 27.5758 6.17417C27.2242 5.82254 26.7473 5.625 26.25 5.625ZM11.25 22.5H3.75V7.5H11.25C11.9959 7.5 12.7113 7.79632 13.2387 8.32376C13.7662 8.85121 14.0625 9.56658 14.0625 10.3125V23.4375C13.2519 22.8275 12.2645 22.4984 11.25 22.5ZM26.25 22.5H18.75C17.7355 22.4984 16.7481 22.8275 15.9375 23.4375V10.3125C15.9375 9.56658 16.2338 8.85121 16.7613 8.32376C17.2887 7.79632 18.0041 7.5 18.75 7.5H26.25V22.5ZM18.75 10.3125H23.4375C23.6861 10.3125 23.9246 10.4113 24.1004 10.5871C24.2762 10.7629 24.375 11.0014 24.375 11.25C24.375 11.4986 24.2762 11.7371 24.1004 11.9129C23.9246 12.0887 23.6861 12.1875 23.4375 12.1875H18.75C18.5014 12.1875 18.2629 12.0887 18.0871 11.9129C17.9113 11.7371 17.8125 11.4986 17.8125 11.25C17.8125 11.0014 17.9113 10.7629 18.0871 10.5871C18.2629 10.4113 18.5014 10.3125 18.75 10.3125ZM24.375 15C24.375 15.2486 24.2762 15.4871 24.1004 15.6629C23.9246 15.8387 23.6861 15.9375 23.4375 15.9375H18.75C18.5014 15.9375 18.2629 15.8387 18.0871 15.6629C17.9113 15.4871 17.8125 15.2486 17.8125 15C17.8125 14.7514 17.9113 14.5129 18.0871 14.3371C18.2629 14.1613 18.5014 14.0625 18.75 14.0625H23.4375C23.6861 14.0625 23.9246 14.1613 24.1004 14.3371C24.2762 14.5129 24.375 14.7514 24.375 15ZM24.375 18.75C24.375 18.9986 24.2762 19.2371 24.1004 19.4129C23.9246 19.5887 23.6861 19.6875 23.4375 19.6875H18.75C18.5014 19.6875 18.2629 19.5887 18.0871 19.4129C17.9113 19.2371 17.8125 18.9986 17.8125 18.75C17.8125 18.5014 17.9113 18.2629 18.0871 18.0871C18.2629 17.9113 18.5014 17.8125 18.75 17.8125H23.4375C23.6861 17.8125 23.9246 17.9113 24.1004 18.0871C24.2762 18.2629 24.375 18.5014 24.375 18.75Z" fill="white"/>
</svg>
