<svg width="21" height="21" viewBox="0 0 21 21" fill="none" xmlns="http://www.w3.org/2000/svg">
<g clip-path="url(#clip0_84_589)">
<path fill-rule="evenodd" clip-rule="evenodd" d="M8.37712 19.494C8.46962 19.6834 8.62637 19.8915 8.79294 20.0347C8.99649 20.2098 9.25012 20.3336 9.51856 20.4329C9.70598 20.5023 9.9536 20.5628 10.1539 20.5988C10.3614 20.636 10.6163 20.6354 10.8565 20.6327C11.2832 20.628 11.6201 20.5883 12.0003 20.4957C12.2399 20.4373 12.4674 20.3725 12.6521 20.2999C13.0008 20.1627 13.2231 20.0103 13.2695 19.9115C13.2347 19.7481 13.1799 19.4908 13.1391 19.2595C13.1028 19.0521 13.0726 18.8437 13.0486 18.6345C12.9964 18.1814 13.0232 17.8625 13.0811 17.3355C13.1664 16.5592 13.3322 16.2056 13.5743 15.7443C13.8054 15.3036 14.187 14.6878 14.4811 14.2911C14.7877 13.8775 15.5554 13.0693 15.8354 12.7689C15.933 12.7978 16.1216 12.8607 16.4133 12.9183C16.6356 12.9622 16.8944 13.0145 17.2201 13.0035C17.9956 12.9774 18.2779 12.8291 18.729 12.535C19.1382 12.2682 19.5299 11.7343 19.7349 11.2227C19.8925 10.8293 19.9411 10.4288 19.8725 9.95871C19.8263 9.64254 19.7241 9.26813 19.6425 9.02055C19.5537 8.75125 19.4143 8.46196 19.2972 8.24309C19.2972 8.24309 19.7679 7.68059 19.9563 7.21137C20.1185 6.80731 20.1941 6.28739 20.1617 5.96242C20.128 5.62516 19.8417 5.00641 19.6618 4.78559C19.4247 4.49465 19.1929 4.19301 18.9001 3.95653C18.6131 3.72465 18.288 3.53489 17.9475 3.39266C17.5948 3.24532 17.1727 3.16 16.8382 3.10125C16.788 2.83328 16.7188 2.64645 16.5344 2.32403C16.3042 1.90996 16.0513 1.72293 15.6538 1.43192C15.1607 1.07086 14.4733 0.698401 13.8062 0.647386C13.5188 0.625433 13.0974 0.61637 12.5676 0.730316C12.1069 0.829378 11.6527 1.01657 11.3074 1.19301C10.6141 0.927464 9.9663 0.966683 9.45528 1.10547C9.0243 1.22246 8.93235 1.2927 8.53805 1.52473C8.15094 1.69196 7.7304 2.08082 7.40477 2.53106C6.19184 2.56547 5.18219 2.99211 4.46337 3.40004C3.64579 3.86403 2.91208 4.7509 2.62481 5.31504C2.30419 5.94465 1.98395 6.83524 2.2545 8.21254C0.467702 9.3111 0.651452 11.0683 1.65594 12.0495C2.53688 12.91 3.9963 13.1781 5.3786 13.0387C5.79157 13.4573 7.35384 15.35 7.35384 15.35C7.35384 15.35 8.92747 17.1234 8.37712 19.494ZM6.68184 12.1529C6.89567 11.9391 7.07895 11.6337 7.22149 11.3995C7.38325 11.4085 7.71544 11.4303 8.04208 11.4153C8.36958 11.4002 8.71665 11.3518 8.8554 11.2707C8.89434 11.3875 9.16536 12.355 9.18255 12.9496C9.20512 13.729 9.1834 13.8672 9.05743 14.1408C8.98883 14.1732 8.92212 14.1873 8.83794 14.1571C8.53805 14.0495 8.03833 13.675 7.68005 13.3407C7.12516 12.8231 6.68184 12.1529 6.68184 12.1529ZM12.8587 11.9883C12.8479 12.083 12.8411 12.4229 12.8868 12.7197C12.9333 13.0213 12.979 13.3014 13.0927 13.4102C13.4923 13.3382 13.7713 13.0819 14.0125 12.9019C14.0125 12.9019 14.7954 12.2907 14.9466 12.1503C14.8314 12.0459 14.6694 11.8011 14.6118 11.6535C14.6118 11.6535 14.0609 11.8149 13.7837 11.8725C13.4345 11.9481 13.0243 11.9811 12.8587 11.9883Z" fill="#F39C12"/>
</g>
<defs>
<clipPath id="clip0_84_589">
<rect width="20" height="20" fill="white" transform="translate(0.535889 0.633789)"/>
</clipPath>
</defs>
</svg>
