<svg width="35" height="35" viewBox="0 0 35 35" fill="none" xmlns="http://www.w3.org/2000/svg">
<path fill-rule="evenodd" clip-rule="evenodd" d="M7.92459 3.64583C6.7898 3.64583 5.70148 4.09662 4.89906 4.89904C4.09664 5.70147 3.64584 6.78978 3.64584 7.92458C3.64584 8.21466 3.53061 8.49286 3.32549 8.69798C3.12037 8.90309 2.84217 9.01833 2.55209 9.01833C2.26201 9.01833 1.98381 8.90309 1.7787 8.69798C1.57358 8.49286 1.45834 8.21466 1.45834 7.92458C1.45834 6.20962 2.13961 4.56491 3.35226 3.35225C4.56492 2.13959 6.20964 1.45833 7.92459 1.45833C9.63955 1.45833 11.2843 2.13959 12.4969 3.35225C13.7096 4.56491 14.3908 6.20962 14.3908 7.92458V18.0046C14.9617 17.673 15.5622 17.3952 16.1846 17.1748C18.1285 16.4675 20.6267 16.0417 22.9688 16.0417C25.3138 16.0417 27.6427 16.469 29.4248 17.1894C30.3115 17.5481 31.1165 18.0017 31.7202 18.5587C32.3196 19.1129 32.8125 19.8625 32.8125 20.7812V22.5079C32.8125 25.2409 31.7268 27.8619 29.7944 29.7943C27.8619 31.7268 25.2409 32.8125 22.5079 32.8125C19.775 32.8125 17.154 31.7268 15.2215 29.7943C13.289 27.8619 12.2033 25.2409 12.2033 22.5079V7.92458C12.2033 7.36268 12.0927 6.80629 11.8776 6.28717C11.6626 5.76805 11.3474 5.29636 10.9501 4.89904C10.5528 4.50173 10.0811 4.18656 9.562 3.97153C9.04288 3.7565 8.48649 3.64583 7.92459 3.64583ZM30.5142 23.8583C30.1914 25.7729 29.1931 27.5085 27.7004 28.7502C26.2077 29.9919 24.3194 30.6574 22.378 30.6262C20.4367 30.595 18.5708 29.869 17.1187 28.58C15.6667 27.291 14.7248 25.5242 14.4638 23.6002C14.9815 23.9006 15.5677 24.1631 16.1846 24.3877C18.1285 25.095 20.6267 25.5208 22.9688 25.5208C25.3138 25.5208 27.6427 25.0935 29.4248 24.3731C29.8054 24.2185 30.1715 24.0465 30.5142 23.8569V23.8583ZM30.625 20.7812C30.625 20.6937 30.5813 20.4837 30.2356 20.1658C29.8944 19.8494 29.3461 19.5183 28.6023 19.2179C27.1236 18.6185 25.0775 18.2292 22.9688 18.2292C20.8571 18.2292 18.6156 18.6185 16.9327 19.231C16.0869 19.5387 15.4423 19.8815 15.0311 20.214C14.5994 20.561 14.5833 20.7608 14.5833 20.7812C14.5833 20.8017 14.5994 21.0015 15.0311 21.35C15.4423 21.681 16.0869 22.0237 16.9327 22.3315C18.6156 22.944 20.8571 23.3333 22.9688 23.3333C25.0775 23.3333 27.1236 22.944 28.6038 22.3446C29.3475 22.0442 29.8944 21.7131 30.2371 21.3967C30.5798 21.0787 30.625 20.8687 30.625 20.7812Z" fill="#F39C12"/>
</svg>
