<svg width="25" height="24" viewBox="0 0 25 24" fill="none" xmlns="http://www.w3.org/2000/svg">
<path d="M22.25 6H19.5603L22.0306 3.53062C22.1003 3.46094 22.1556 3.37822 22.1933 3.28717C22.231 3.19613 22.2504 3.09855 22.2504 3C22.2504 2.90145 22.231 2.80387 22.1933 2.71283C22.1556 2.62178 22.1003 2.53906 22.0306 2.46938C21.9609 2.39969 21.8782 2.34442 21.7872 2.3067C21.6961 2.26899 21.5985 2.24958 21.5 2.24958C21.4014 2.24958 21.3039 2.26899 21.2128 2.3067C21.1218 2.34442 21.0391 2.39969 20.9694 2.46938L18.5 4.93969V2.25C18.5 2.05109 18.421 1.86032 18.2803 1.71967C18.1397 1.57902 17.9489 1.5 17.75 1.5C17.5511 1.5 17.3603 1.57902 17.2197 1.71967C17.079 1.86032 17 2.05109 17 2.25V5.30344C15.8572 4.6437 14.5288 4.37911 13.2204 4.55062C11.912 4.72214 10.6966 5.32019 9.76249 6.25219C6.00312 9.945 3.17655 18.7284 2.90093 19.6069C2.77098 19.8858 2.72996 20.198 2.78346 20.501C2.83695 20.8041 2.98236 21.0834 3.19996 21.301C3.41756 21.5186 3.69683 21.664 3.99988 21.7175C4.30293 21.771 4.6151 21.73 4.89405 21.6C5.77249 21.3244 14.5672 18.4941 18.2506 14.7366C19.182 13.8021 19.7793 12.5868 19.9503 11.2786C20.1213 9.97047 19.8564 8.64242 19.1966 7.5H22.25C22.4489 7.5 22.6397 7.42098 22.7803 7.28033C22.921 7.13968 23 6.94891 23 6.75C23 6.55109 22.921 6.36032 22.7803 6.21967C22.6397 6.07902 22.4489 6 22.25 6ZM17.1762 13.6875C16.3381 14.5425 15.1841 15.3562 13.9091 16.0997L11.5297 13.7194C11.46 13.6497 11.3773 13.5944 11.2862 13.5567C11.1952 13.519 11.0976 13.4996 10.9991 13.4996C10.9005 13.4996 10.8029 13.519 10.7119 13.5567C10.6208 13.5944 10.5381 13.6497 10.4684 13.7194C10.3987 13.7891 10.3435 13.8718 10.3058 13.9628C10.268 14.0539 10.2486 14.1515 10.2486 14.25C10.2486 14.3485 10.268 14.4461 10.3058 14.5372C10.3435 14.6282 10.3987 14.7109 10.4684 14.7806L12.5394 16.8516C8.7078 18.8381 4.44687 20.1722 4.38312 20.1919C4.33695 20.2069 4.29236 20.2263 4.24999 20.25C4.27264 20.2078 4.29117 20.1636 4.3053 20.1178C4.33249 20.0306 6.9303 11.7197 10.3053 7.8675L13.4712 11.0334C13.612 11.1742 13.8028 11.2532 14.0019 11.2532C14.2009 11.2532 14.3918 11.1742 14.5325 11.0334C14.6732 10.8927 14.7523 10.7018 14.7523 10.5028C14.7523 10.3038 14.6732 10.1129 14.5325 9.97219L11.3919 6.8325C12.312 6.17782 13.4447 5.89303 14.5651 6.03467C15.6854 6.1763 16.7116 6.734 17.4399 7.59708C18.1681 8.46015 18.5453 9.5655 18.4965 10.6937C18.4476 11.822 17.9764 12.8906 17.1762 13.6875Z" fill="#D35400"/>
</svg>
