<svg width="26" height="26" viewBox="0 0 26 26" fill="none" xmlns="http://www.w3.org/2000/svg">
<path d="M5.70125 19.2613L20.5 19.25M13 1.75C15.3975 1.75 17.4 3.4375 17.8875 5.68875C18.5214 5.51721 19.1828 5.4722 19.8341 5.55629C20.4854 5.64039 21.1137 5.85193 21.6832 6.17885C22.2527 6.50577 22.7523 6.94166 23.1533 7.46164C23.5544 7.98162 23.8491 8.5755 24.0206 9.20937C24.1922 9.84325 24.2372 10.5047 24.1531 11.156C24.069 11.8072 23.8574 12.4356 23.5305 13.0051C23.2036 13.5746 22.7677 14.0741 22.2477 14.4752C21.7278 14.8763 21.1339 15.171 20.5 15.3425V24.25H5.5V15.3425C4.86612 15.1708 4.27228 14.8759 3.75236 14.4747C3.23245 14.0735 2.79665 13.5738 2.46984 13.0042C2.14304 12.4346 1.93163 11.8061 1.84769 11.1548C1.76375 10.5035 1.80892 9.842 1.98062 9.20813C2.15233 8.57425 2.4472 7.9804 2.84841 7.46049C3.24961 6.94057 3.7493 6.50477 4.31893 6.17797C4.88855 5.85116 5.51698 5.63976 6.16831 5.55582C6.81964 5.47188 7.48112 5.51705 8.115 5.68875C8.35729 4.57321 8.97402 3.57416 9.86268 2.85764C10.7513 2.14111 11.8584 1.75025 13 1.75Z" stroke="#F39C12" stroke-width="1.66667" stroke-linecap="round" stroke-linejoin="round"/>
</svg>
