<svg width="30" height="30" viewBox="0 0 30 30" fill="none" xmlns="http://www.w3.org/2000/svg">
<path d="M7.70125 21.2613L22.5 21.25M15 3.75C17.3975 3.75 19.4 5.4375 19.8875 7.68875C20.5214 7.51721 21.1828 7.4722 21.8341 7.55629C22.4854 7.64039 23.1137 7.85193 23.6832 8.17885C24.2527 8.50577 24.7523 8.94166 25.1533 9.46164C25.5544 9.98162 25.8491 10.5755 26.0206 11.2094C26.1922 11.8432 26.2372 12.5047 26.1531 13.156C26.069 13.8072 25.8574 14.4356 25.5305 15.0051C25.2036 15.5746 24.7677 16.0741 24.2477 16.4752C23.7278 16.8763 23.1339 17.171 22.5 17.3425V26.25H7.5V17.3425C6.86612 17.1708 6.27228 16.8759 5.75236 16.4747C5.23245 16.0735 4.79665 15.5738 4.46984 15.0042C4.14304 14.4346 3.93163 13.8061 3.84769 13.1548C3.76375 12.5035 3.80892 11.842 3.98062 11.2081C4.15233 10.5743 4.4472 9.9804 4.84841 9.46049C5.24961 8.94057 5.7493 8.50477 6.31893 8.17797C6.88855 7.85116 7.51698 7.63976 8.16831 7.55582C8.81964 7.47188 9.48112 7.51705 10.115 7.68875C10.3573 6.57321 10.974 5.57416 11.8627 4.85764C12.7513 4.14111 13.8584 3.75025 15 3.75Z" stroke="#F39C12" stroke-width="1.66667" stroke-linecap="round" stroke-linejoin="round"/>
</svg>
