<svg width="70" height="70" viewBox="0 0 70 70" fill="none" xmlns="http://www.w3.org/2000/svg">
<path d="M26.25 61.25V52.5H5.83337V46.6667H26.25C27.8542 46.6667 29.228 47.2383 30.3713 48.3817C31.5146 49.525 32.0853 50.8978 32.0834 52.5V61.25H26.25ZM37.9167 61.25V52.5C37.9167 50.8958 38.4884 49.5221 39.6317 48.3788C40.775 47.2354 42.1478 46.6647 43.75 46.6667H64.1667V52.5H43.75V61.25H37.9167ZM17.5 43.75C15.0695 43.75 13.0035 42.8993 11.3021 41.1979C9.60073 39.4965 8.75004 37.4306 8.75004 35V23.3333H61.25V35C61.25 37.4306 60.3993 39.4965 58.698 41.1979C56.9966 42.8993 54.9306 43.75 52.5 43.75H17.5ZM17.5 37.9167H52.5C53.3264 37.9167 54.0196 37.6367 54.5796 37.0767C55.1396 36.5167 55.4186 35.8245 55.4167 35V29.1667H14.5834V35C14.5834 35.8264 14.8634 36.5196 15.4234 37.0796C15.9834 37.6396 16.6756 37.9186 17.5 37.9167ZM8.75004 20.4167V14.5833H26.25V11.6667C26.25 10.8403 26.53 10.1471 27.09 9.58709C27.65 9.02709 28.3423 8.74807 29.1667 8.75001H40.8334C41.6598 8.75001 42.353 9.03001 42.913 9.59001C43.473 10.15 43.752 10.8422 43.75 11.6667V14.5833H61.25V20.4167H8.75004Z" fill="#F39C12"/>
</svg>
