<svg width="70" height="70" viewBox="0 0 70 70" fill="none" xmlns="http://www.w3.org/2000/svg">
<path d="M20.4167 30.6249V17.4999C20.4167 16.7264 20.724 15.9845 21.271 15.4375C21.818 14.8905 22.5599 14.5833 23.3334 14.5833H27.7084C28.482 14.5833 29.2238 14.8905 29.7708 15.4375C30.3178 15.9845 30.6251 16.7264 30.6251 17.4999V32.0833V8.74992C30.6251 7.97637 30.9324 7.2345 31.4794 6.68752C32.0263 6.14054 32.7682 5.83325 33.5417 5.83325H37.9167C38.6903 5.83325 39.4322 6.14054 39.9791 6.68752C40.5261 7.2345 40.8334 7.97637 40.8334 8.74992V32.0833V20.4166C40.8334 19.643 41.1407 18.9012 41.6877 18.3542C42.2347 17.8072 42.9765 17.4999 43.7501 17.4999H48.1251C48.8986 17.4999 49.6405 17.8072 50.1875 18.3542C50.7345 18.9012 51.0417 19.643 51.0417 20.4166V30.6249" stroke="#F39C12" stroke-width="4" stroke-linecap="round" stroke-linejoin="round"/>
<path d="M10.2084 26.25C10.2084 26.25 20.4167 33.5417 35 33.5417C49.5834 33.5417 59.7917 26.25 59.7917 26.25L52.7655 64.1667H17.2346L10.2084 26.25Z" stroke="#F39C12" stroke-width="4" stroke-linecap="round" stroke-linejoin="round"/>
<path d="M35 52.5C39.8325 52.5 43.75 50.5412 43.75 48.125C43.75 45.7088 39.8325 43.75 35 43.75C30.1675 43.75 26.25 45.7088 26.25 48.125C26.25 50.5412 30.1675 52.5 35 52.5Z" stroke="#F39C12" stroke-width="4"/>
</svg>
