<svg width="21" height="21" viewBox="0 0 21 21" fill="none" xmlns="http://www.w3.org/2000/svg">
<path d="M10.7003 17.75C9.07534 17.75 7.69673 17.1839 6.5645 16.0517C5.43228 14.9194 4.86645 13.5411 4.867 11.9167C4.867 10.8472 5.04423 9.77083 5.39867 8.6875C5.75312 7.60417 6.21145 6.62139 6.77367 5.73917C7.33589 4.8575 7.96423 4.13889 8.65867 3.58333C9.35312 3.02778 10.0337 2.75 10.7003 2.75C11.3809 2.75 12.0651 3.02778 12.7528 3.58333C13.4406 4.13889 14.0656 4.85778 14.6278 5.74C15.1901 6.62167 15.6484 7.60417 16.0028 8.6875C16.3573 9.77083 16.5342 10.8472 16.5337 11.9167C16.5337 13.5417 15.9676 14.9203 14.8353 16.0525C13.7031 17.1847 12.3248 17.7506 10.7003 17.75ZM10.7003 16.0833C11.8531 16.0833 12.8359 15.6769 13.6487 14.8642C14.4614 14.0514 14.8676 13.0689 14.867 11.9167C14.867 11.125 14.7314 10.2917 14.4603 9.41667C14.1892 8.54167 13.8489 7.7325 13.4395 6.98917C13.0301 6.24639 12.5823 5.63194 12.0962 5.14583C11.6101 4.65972 11.1448 4.41667 10.7003 4.41667C10.2698 4.41667 9.80784 4.65972 9.3145 5.14583C8.82117 5.63194 8.37006 6.24639 7.96117 6.98917C7.55117 7.7325 7.21089 8.54167 6.94034 9.41667C6.66978 10.2917 6.53423 11.125 6.53367 11.9167C6.53367 13.0694 6.94006 14.0522 7.75284 14.865C8.56562 15.6778 9.54812 16.0839 10.7003 16.0833ZM11.5337 15.25C11.7698 15.25 11.9678 15.17 12.1278 15.01C12.2878 14.85 12.3676 14.6522 12.367 14.4167C12.367 14.1806 12.287 13.9825 12.127 13.8225C11.967 13.6625 11.7692 13.5828 11.5337 13.5833C10.8392 13.5833 10.2489 13.3403 9.76284 12.8542C9.27673 12.3681 9.03367 11.7778 9.03367 11.0833C9.03367 10.8472 8.95367 10.6492 8.79367 10.4892C8.63367 10.3292 8.43589 10.2494 8.20034 10.25C7.96423 10.25 7.76617 10.33 7.60617 10.49C7.44617 10.65 7.36645 10.8478 7.367 11.0833C7.367 12.2361 7.77339 13.2189 8.58617 14.0317C9.39895 14.8444 10.3814 15.2506 11.5337 15.25Z" fill="#F39C12"/>
</svg>
