<svg width="16" height="16" viewBox="0 0 16 16" fill="none" xmlns="http://www.w3.org/2000/svg">
<path d="M1.99999 3.33341V2.66675C1.82318 2.66675 1.65361 2.73699 1.52859 2.86201C1.40357 2.98703 1.33333 3.1566 1.33333 3.33341H1.99999ZM14 3.33341H14.6667C14.6667 3.1566 14.5964 2.98703 14.4714 2.86201C14.3464 2.73699 14.1768 2.66675 14 2.66675V3.33341ZM1.99999 4.00008H14V2.66675H1.99999V4.00008ZM13.3333 3.33341V11.3334H14.6667V3.33341H13.3333ZM12.6667 12.0001H3.33333V13.3334H12.6667V12.0001ZM2.66666 11.3334V3.33341H1.33333V11.3334H2.66666ZM3.33333 12.0001C3.15652 12.0001 2.98695 11.9298 2.86192 11.8048C2.7369 11.6798 2.66666 11.5102 2.66666 11.3334H1.33333C1.33333 11.8638 1.54404 12.3726 1.91911 12.7476C2.29419 13.1227 2.8029 13.3334 3.33333 13.3334V12.0001ZM13.3333 11.3334C13.3333 11.5102 13.2631 11.6798 13.1381 11.8048C13.013 11.9298 12.8435 12.0001 12.6667 12.0001V13.3334C13.1971 13.3334 13.7058 13.1227 14.0809 12.7476C14.4559 12.3726 14.6667 11.8638 14.6667 11.3334H13.3333Z" fill="#FF9955"/>
<path d="M2 3.3335L8 9.3335L14 3.3335" stroke="#FF9955" stroke-width="2" stroke-linecap="round" stroke-linejoin="round"/>
</svg>
