<svg width="71" height="70" viewBox="0 0 71 70" fill="none" xmlns="http://www.w3.org/2000/svg">
<g clip-path="url(#clip0_84_439)">
<path d="M47.5313 20.7814C47.5313 21.6467 47.2747 22.4925 46.7939 23.212C46.3132 23.9314 45.6299 24.4922 44.8305 24.8233C44.0311 25.1545 43.1514 25.2411 42.3027 25.0723C41.4541 24.9035 40.6745 24.4868 40.0627 23.875C39.4508 23.2631 39.0341 22.4835 38.8653 21.6349C38.6965 20.7862 38.7832 19.9065 39.1143 19.1071C39.4454 18.3077 40.0062 17.6244 40.7256 17.1437C41.4451 16.663 42.291 16.4064 43.1563 16.4064C44.3166 16.4064 45.4294 16.8673 46.2499 17.6878C47.0703 18.5082 47.5313 19.621 47.5313 20.7814ZM64.9328 24.4591C64.4434 32.1153 62.1766 38.5493 58.1953 43.5997C52.4149 50.9442 43.3094 54.9993 31.1086 55.6747L25.3828 68.086C25.1214 68.6564 24.702 69.1398 24.1742 69.4791C23.6464 69.8183 23.0325 69.9991 22.4051 70.0001H22.1836C21.5213 69.9554 20.8882 69.7109 20.3678 69.2989C19.8474 68.8868 19.4642 68.3267 19.2688 67.6923L15.3969 55.1142L2.81876 51.2341C2.18378 51.0384 1.62317 50.6545 1.21109 50.1333C0.799017 49.6121 0.5549 48.978 0.511035 48.315C0.467171 47.652 0.625626 46.9913 0.965438 46.4203C1.30525 45.8493 1.81041 45.3949 2.41408 45.1173L14.8281 39.397C15.4981 27.1907 19.5586 18.0853 26.9031 12.3048C31.959 8.32355 38.3875 6.05949 46.0438 5.5673C50.6368 5.28942 55.2464 5.62413 59.7512 6.56261C60.7772 6.78497 61.7175 7.29795 62.4598 8.04029C63.2022 8.78262 63.7151 9.72294 63.9375 10.7489C64.8764 15.2546 65.2111 19.8651 64.9328 24.4591ZM41.934 47.0997C40.8258 46.44 39.8035 45.6455 38.8906 44.7345C36.5163 42.3659 34.9884 39.2812 34.543 35.9571C31.219 35.5118 28.1342 33.9838 25.7656 31.6095C24.8561 30.6966 24.0635 29.6743 23.4059 28.5661C22.1298 32.2995 21.428 36.6462 21.3004 41.6064C21.285 42.2207 21.0974 42.8183 20.7591 43.3312C20.4207 43.8441 19.945 44.2517 19.3863 44.5075L12.9442 47.4798L18.9871 49.3446C19.4981 49.5024 19.9628 49.7827 20.3407 50.1611C20.7186 50.5395 20.9983 51.0045 21.1555 51.5157L23.0149 57.556L25.9926 51.1056C26.2484 50.5469 26.656 50.0713 27.1689 49.7329C27.6818 49.3945 28.2795 49.2069 28.8938 49.1915C33.8448 49.0803 38.1916 48.3831 41.934 47.0997ZM57.6676 12.8325C53.6453 12.056 40.2086 10.1857 30.961 17.4618C29.8207 18.358 28.7761 19.3697 27.8438 20.4806C27.8013 21.7237 28.0243 22.9616 28.498 24.1117C28.9717 25.2618 29.6852 26.2977 30.5909 27.1503C31.4965 28.0029 32.5735 28.6526 33.7501 29.0561C34.9267 29.4597 36.1758 29.6077 37.4141 29.4903C37.8956 29.4442 38.3813 29.5051 38.8366 29.6686C39.2918 29.8322 39.7052 30.0944 40.0473 30.4364C40.3893 30.7785 40.6515 31.1919 40.8151 31.6471C40.9786 32.1024 41.0395 32.5881 40.9934 33.0696C40.8759 34.3091 41.0242 35.5594 41.4285 36.737C41.8328 37.9145 42.4838 38.9923 43.3379 39.8981C44.192 40.804 45.2296 41.5172 46.3814 41.99C47.5332 42.4628 48.7726 42.6844 50.0168 42.64C51.1236 41.7118 52.1316 40.6718 53.0246 39.5364C60.3172 30.2997 58.4442 16.8575 57.6676 12.8325Z" fill="#F39C12"/>
</g>
<defs>
<clipPath id="clip0_84_439">
<rect width="70" height="70" fill="white" transform="translate(0.5)"/>
</clipPath>
</defs>
</svg>
