<svg width="35" height="36" viewBox="0 0 35 36" fill="none" xmlns="http://www.w3.org/2000/svg">
<path d="M19.1098 0.43032C17.6392 0.466751 15.3817 2.03733 13.6249 3.69614C13.2593 4.04102 12.9254 4.377 12.6154 4.69921C17.0828 4.89755 21.2958 4.67006 25.477 4.35838C25.0716 3.96007 24.6026 3.52209 24.078 3.07439C22.4484 1.68111 20.3737 0.398746 19.1098 0.43032ZM31.8442 5.32906C23.8951 5.92005 16.0494 6.83487 6.89205 5.67717C6.4787 6.09006 6.26408 6.45437 6.20048 6.75391C6.14484 7.04535 6.18459 7.31252 6.37536 7.65254C15.3976 9.70076 24.4198 9.74933 32.3848 7.11822C32.4245 6.89154 32.3927 6.65676 32.2973 6.35722C32.2019 6.04958 32.035 5.70146 31.8442 5.32906ZM30.8506 9.10168C23.768 11.0366 16.0255 11.0204 8.26724 9.53885C6.36741 17.0112 2.70289 23.7388 3.74183 31.6159L3.83404 32.3122L3.15281 32.4336C2.37141 32.5632 1.25854 33.2675 0.613075 33.9961C0.289547 34.3604 0.0892301 34.7247 0.0423305 34.9271C-0.00456904 35.1214 -0.032391 35.0405 0.0685623 35.1052C0.480325 35.3886 1.73787 35.5424 3.0757 35.3319C4.41353 35.1214 5.84277 34.6114 6.70922 34.0528L6.9477 33.8989L7.22591 33.9556C14.1575 35.2914 20.4611 35.9634 27.4166 34.2471L27.7584 34.158L28.0366 34.3847C28.4818 34.7571 29.9205 35.0647 31.407 35.1133C32.7584 35.1619 34.0938 35.0728 35 35.0324C34.9126 34.7895 34.7377 34.4171 34.4754 34.0204C34.1415 33.5346 33.7202 33.0327 33.3227 32.6522C32.9173 32.2717 32.496 32.0531 32.4404 32.0369L31.7329 31.8993L31.876 31.1788C33.3148 23.9574 33.9825 16.6469 30.8506 9.10168ZM18.7282 11.9676C23.442 11.9676 27.1702 16.3959 27.1702 21.731C27.1702 27.0661 23.442 31.4945 18.7282 31.4945C14.0144 31.4945 10.2863 27.0661 10.2863 21.731C10.2863 16.3959 14.0144 11.9676 18.7282 11.9676ZM18.7282 13.4248C14.9047 13.4248 11.7171 17.0841 11.7171 21.731C11.7171 25.9975 14.4039 29.4301 17.8061 29.9644L17.9651 26.799C15.5168 26.3132 14.8014 23.6093 14.7934 22.6135C15.5327 22.6944 17.1782 23.2854 18.0764 24.6212L18.1797 22.6459C15.7235 22.1682 15.0081 19.4561 15.0001 18.4604C15.7314 18.5413 17.3928 19.1323 18.291 20.4843L18.3944 18.517C16.9794 17.9179 16.5422 16.1612 16.5343 15.4811C17.1702 15.5459 18.7123 16.145 19.229 17.5455C19.8967 16.2178 21.4786 15.7888 22.1066 15.7888C22.035 16.5012 21.3912 18.2661 19.8173 18.6547L19.7219 20.541C20.7473 19.3023 22.4484 18.8894 23.1956 18.8975C23.0764 19.8771 22.0986 22.5001 19.6106 22.7187L19.5072 24.7103C20.5327 23.4635 22.2417 23.0506 22.981 23.0506C22.8777 24.0302 21.892 26.6614 19.396 26.8718L19.237 30.013C22.83 29.7054 25.7393 26.1675 25.7393 21.731C25.7393 17.0841 22.5517 13.4248 18.7282 13.4248Z" fill="#F39C12"/>
</svg>
