<svg width="24" height="24" viewBox="0 0 24 24" fill="none" xmlns="http://www.w3.org/2000/svg">
<path d="M0.999993 21H16V22C16 22.54 15.56 23 15 23H1.99999C1.44999 23 0.999993 22.54 0.999993 22V21ZM20.5 23.31L16 18.83V19H0.999993V17H14.17L12.17 15H0.999993C0.999993 11.76 3.45999 9.83 6.37999 9.21L0.679993 3.5L2.09999 2.1L13 13L15 15L21.9 21.9L20.5 23.31ZM10.17 13L8.16999 11C6.74999 11.06 4.64999 11.56 3.61999 13H10.17ZM23 5H18V1H16V5H11L11.23 7H20.79L19.79 16.97L21.62 18.8L23 5Z" fill="white"/>
</svg>
