<svg width="16" height="16" viewBox="0 0 16 16" fill="none" xmlns="http://www.w3.org/2000/svg">
<path d="M13 1.5H10.5C10.3674 1.5 10.2402 1.55268 10.1465 1.64645C10.0527 1.74021 10 1.86739 10 2C10 2.13261 10.0527 2.25979 10.1465 2.35355C10.2402 2.44732 10.3674 2.5 10.5 2.5H11.7932L10.2213 4.07188C9.75973 3.64174 9.20298 3.32689 8.59651 3.15303C7.99004 2.97916 7.35103 2.95123 6.7317 3.07149C6.11237 3.19176 5.53026 3.45682 5.03293 3.84502C4.5356 4.23323 4.13716 4.73357 3.87013 5.30518C3.60311 5.87679 3.47508 6.50346 3.49651 7.134C3.51794 7.76454 3.68821 8.38107 3.99342 8.93323C4.29864 9.48539 4.73013 9.95753 5.25267 10.3111C5.7752 10.6646 6.37396 10.8896 7.00003 10.9675V12H5.50003C5.36742 12 5.24025 12.0527 5.14648 12.1464C5.05271 12.2402 5.00003 12.3674 5.00003 12.5C5.00003 12.6326 5.05271 12.7598 5.14648 12.8536C5.24025 12.9473 5.36742 13 5.50003 13H7.00003V14.5C7.00003 14.6326 7.05271 14.7598 7.14648 14.8536C7.24024 14.9473 7.36742 15 7.50003 15C7.63264 15 7.75982 14.9473 7.85358 14.8536C7.94735 14.7598 8.00003 14.6326 8.00003 14.5V13H9.50003C9.63264 13 9.75982 12.9473 9.85358 12.8536C9.94735 12.7598 10 12.6326 10 12.5C10 12.3674 9.94735 12.2402 9.85358 12.1464C9.75982 12.0527 9.63264 12 9.50003 12H8.00003V10.9675C8.67023 10.8838 9.30827 10.6315 9.85451 10.2343C10.4007 9.83701 10.8374 9.30776 11.1235 8.69597C11.4097 8.08418 11.5361 7.40982 11.4909 6.73592C11.4457 6.06203 11.2303 5.41059 10.865 4.8425L12.5 3.20688V4.5C12.5 4.63261 12.5527 4.75979 12.6465 4.85355C12.7402 4.94732 12.8674 5 13 5C13.1326 5 13.2598 4.94732 13.3536 4.85355C13.4474 4.75979 13.5 4.63261 13.5 4.5V2C13.5 1.86739 13.4474 1.74021 13.3536 1.64645C13.2598 1.55268 13.1326 1.5 13 1.5ZM7.50003 10C6.90669 10 6.32667 9.82405 5.83332 9.49441C5.33997 9.16476 4.95545 8.69623 4.72839 8.14805C4.50133 7.59987 4.44192 6.99667 4.55767 6.41473C4.67343 5.83279 4.95915 5.29824 5.37871 4.87868C5.79827 4.45912 6.33282 4.1734 6.91476 4.05764C7.4967 3.94189 8.0999 4.0013 8.64808 4.22836C9.19626 4.45542 9.66479 4.83994 9.99444 5.33329C10.3241 5.82664 10.5 6.40666 10.5 7C10.4992 7.7954 10.1829 8.55798 9.62044 9.12041C9.05801 9.68284 8.29543 9.99917 7.50003 10Z" fill="#FF9955"/>
</svg>
