<svg width="70" height="70" viewBox="0 0 70 70" fill="none" xmlns="http://www.w3.org/2000/svg">
<path d="M34.8833 3.52905C32.9583 8.04989 31.0333 12.5707 31.0625 16.9749C31.0917 18.7249 31.4125 20.4166 31.9083 22.2249C31.6806 21.7675 31.4173 21.3286 31.1208 20.9124C28.6708 17.4999 23.8292 14.5832 18.9583 11.6666C18.9583 13.9999 18.9583 16.3041 19.4833 18.5499L37.9167 36.9832V31.2082C42.2917 28.5832 46.4333 25.8999 48.6208 22.8374C51.0417 19.4541 51.0417 15.5457 51.0417 11.6666C46.1708 14.5832 41.3292 17.4999 38.8792 20.9124C38.5875 21.3207 38.3542 21.7291 38.1208 22.1374C38.6458 20.2999 38.9667 18.4332 38.9375 16.5957C38.9083 12.1916 36.8958 7.84572 34.8833 3.52905ZM9.56668 16.0416L5.83334 19.7457L19.3667 33.2791C19.6875 34.9999 20.2708 36.6041 21.3792 38.1499C23.5667 41.2124 27.7083 43.8957 32.0833 46.5207V53.1707L31.1208 51.5374C28.6708 48.1249 23.8292 45.2082 18.9583 42.2916C18.9583 46.1707 18.9583 50.0791 21.3792 53.4624C23.5667 56.5249 27.7083 59.2082 32.0833 61.8332V67.0832H37.9167V61.8332C40.075 60.5499 42.1458 59.2374 43.9542 57.8666L54.6292 68.5416L58.3333 64.8082C40.8333 47.3374 26.5417 33.0166 9.56668 16.0416ZM51.0417 26.9791C46.1708 29.8957 41.3292 32.8124 38.8792 36.2249L38.2667 37.3041L43.75 42.7582C45.7042 41.2999 47.4542 39.7832 48.6208 38.1499C51.0417 34.7666 51.0417 30.8582 51.0417 26.9791ZM51.0417 42.2916C49.3792 43.2832 47.775 44.2749 46.2292 45.2957L50.4292 49.4957C51.0417 47.1624 51.0417 44.7124 51.0417 42.2916Z" fill="#F39C12"/>
</svg>
