<svg width="22" height="22" viewBox="0 0 22 22" fill="none" xmlns="http://www.w3.org/2000/svg">
<g clip-path="url(#clip0_64_151)">
<path d="M11 19.8184C10.865 19.8179 10.7339 19.7728 10.6272 19.69C7.22946 17.05 4.88891 14.7767 3.25113 12.5339C1.16113 9.66781 0.684465 7.0217 1.83335 4.66893C2.65224 2.98837 5.00502 1.61337 7.75502 2.41393C9.06618 2.79265 10.2102 3.60485 11 4.71781C11.7899 3.60485 12.9339 2.79265 14.245 2.41393C16.9889 1.62559 19.3478 2.98837 20.1667 4.66893C21.3156 7.0217 20.8389 9.66781 18.7489 12.5339C17.1111 14.7767 14.7706 17.05 11.3728 19.69C11.2661 19.7728 11.135 19.8179 11 19.8184ZM6.19058 3.41004C5.53623 3.38457 4.8873 3.53779 4.31345 3.85324C3.7396 4.1687 3.2625 4.63448 2.93335 5.20059C1.98613 7.14393 2.41391 9.30726 4.24113 11.8067C6.18298 14.3114 8.45683 16.54 11 18.4311C13.5428 16.5419 15.8166 14.3153 17.7589 11.8128C19.5922 9.30726 20.0139 7.14393 19.0667 5.2067C18.4556 3.98448 16.6222 3.01281 14.5811 3.58726C13.9267 3.78068 13.3199 4.10897 12.8 4.55103C12.2801 4.99308 11.8584 5.53909 11.5622 6.15392C11.5162 6.26601 11.4379 6.36188 11.3372 6.42934C11.2366 6.49681 11.1181 6.53283 10.997 6.53283C10.8758 6.53283 10.7574 6.49681 10.6567 6.42934C10.5561 6.36188 10.4777 6.26601 10.4317 6.15392C10.1377 5.53755 9.71683 4.99026 9.19656 4.54794C8.6763 4.10561 8.06843 3.77823 7.4128 3.58726C7.01556 3.47188 6.60422 3.41224 6.19058 3.41004Z" fill="#B0B0B0"/>
</g>
<defs>
<clipPath id="clip0_64_151">
<rect width="22" height="22" fill="white"/>
</clipPath>
</defs>
</svg>
