<svg width="30" height="30" viewBox="0 0 30 30" fill="none" xmlns="http://www.w3.org/2000/svg">
<path d="M27.1653 3.77229C26.8599 3.46686 26.4972 3.22474 26.098 3.0598C25.6988 2.89485 25.271 2.81034 24.8391 2.8111C24.4072 2.81186 23.9797 2.89789 23.5811 3.06424C23.1826 3.23059 22.8207 3.47399 22.5164 3.78049L2.14103 24.6797C2.0243 24.7988 1.94142 24.9468 1.90095 25.1085C1.86049 25.2703 1.86389 25.4399 1.91082 25.5999C1.95774 25.7599 2.04649 25.9045 2.16791 26.0188C2.28933 26.1331 2.43903 26.2129 2.60158 26.25C3.9465 26.5617 5.32258 26.719 6.70314 26.7188C10.6195 26.7188 14.5406 25.4438 18.2262 22.9442C21.9469 20.4211 24.1031 17.5711 24.1934 17.4504C24.3289 17.2699 24.3948 17.0465 24.3789 16.8213C24.3629 16.5961 24.2663 16.3843 24.1067 16.2246L21.9106 14.0262L27.184 8.40119C27.7911 7.78265 28.1296 6.94957 28.1261 6.08288C28.1226 5.2162 27.7773 4.38589 27.1653 3.77229ZM22.1742 16.9488C20.6884 18.65 18.9906 20.1537 17.1223 21.4231C13.0828 24.1477 8.91916 25.2551 4.71916 24.7231L17.1762 11.9496L22.1742 16.9488Z" fill="#F39C12"/>
</svg>
