<svg width="21" height="20" viewBox="0 0 21 20" fill="none" xmlns="http://www.w3.org/2000/svg">
<path d="M10.5 1.25C10.6658 1.25 10.8247 1.31585 10.9419 1.43306C11.0592 1.55027 11.125 1.70924 11.125 1.875V5.625C11.125 5.79076 11.0592 5.94973 10.9419 6.06694C10.8247 6.18415 10.6658 6.25 10.5 6.25C10.3342 6.25 10.1753 6.18415 10.0581 6.06694C9.94085 5.94973 9.875 5.79076 9.875 5.625V1.875C9.875 1.70924 9.94085 1.55027 10.0581 1.43306C10.1753 1.31585 10.3342 1.25 10.5 1.25ZM10.5 13.75C10.6658 13.75 10.8247 13.8158 10.9419 13.9331C11.0592 14.0503 11.125 14.2092 11.125 14.375V18.125C11.125 18.2908 11.0592 18.4497 10.9419 18.5669C10.8247 18.6842 10.6658 18.75 10.5 18.75C10.3342 18.75 10.1753 18.6842 10.0581 18.5669C9.94085 18.4497 9.875 18.2908 9.875 18.125V14.375C9.875 14.2092 9.94085 14.0503 10.0581 13.9331C10.1753 13.8158 10.3342 13.75 10.5 13.75ZM19.25 10C19.25 10.1658 19.1842 10.3247 19.0669 10.4419C18.9497 10.5592 18.7908 10.625 18.625 10.625H14.875C14.7092 10.625 14.5503 10.5592 14.4331 10.4419C14.3158 10.3247 14.25 10.1658 14.25 10C14.25 9.83424 14.3158 9.67527 14.4331 9.55806C14.5503 9.44085 14.7092 9.375 14.875 9.375H18.625C18.7908 9.375 18.9497 9.44085 19.0669 9.55806C19.1842 9.67527 19.25 9.83424 19.25 10ZM6.75 10C6.75 10.1658 6.68415 10.3247 6.56694 10.4419C6.44973 10.5592 6.29076 10.625 6.125 10.625H2.375C2.20924 10.625 2.05027 10.5592 1.93306 10.4419C1.81585 10.3247 1.75 10.1658 1.75 10C1.75 9.83424 1.81585 9.67527 1.93306 9.55806C2.05027 9.44085 2.20924 9.375 2.375 9.375H6.125C6.29076 9.375 6.44973 9.44085 6.56694 9.55806C6.68415 9.67527 6.75 9.83424 6.75 10ZM4.3125 3.8125C4.4297 3.69533 4.58865 3.62951 4.75437 3.62951C4.9201 3.62951 5.07905 3.69533 5.19625 3.8125L7.85 6.465C7.96385 6.58288 8.02685 6.74075 8.02542 6.90463C8.024 7.0685 7.95827 7.22526 7.84239 7.34114C7.72651 7.45702 7.56975 7.52275 7.40588 7.52417C7.242 7.5256 7.08413 7.4626 6.96625 7.34875L4.3125 4.69625C4.19533 4.57905 4.12951 4.4201 4.12951 4.25437C4.12951 4.08865 4.19533 3.9297 4.3125 3.8125ZM13.1513 12.6513C13.2685 12.5341 13.4274 12.4683 13.5931 12.4683C13.7589 12.4683 13.9178 12.5341 14.035 12.6513L16.6875 15.3038C16.8013 15.4216 16.8643 15.5795 16.8629 15.7434C16.8615 15.9072 16.7958 16.064 16.6799 16.1799C16.564 16.2958 16.4072 16.3615 16.2434 16.3629C16.0795 16.3643 15.9216 16.3013 15.8038 16.1875L13.1513 13.535C13.0341 13.4178 12.9683 13.2589 12.9683 13.0931C12.9683 12.9274 13.0341 12.7685 13.1513 12.6513ZM16.6875 3.81375C16.8043 3.9309 16.8699 4.08958 16.8699 4.255C16.8699 4.42042 16.8043 4.5791 16.6875 4.69625L14.035 7.35C13.9171 7.46385 13.7592 7.52685 13.5954 7.52542C13.4315 7.524 13.2747 7.45827 13.1589 7.34239C13.043 7.22651 12.9773 7.06975 12.9758 6.90588C12.9744 6.742 13.0374 6.58413 13.1513 6.46625L15.8038 3.81375C15.921 3.69658 16.0799 3.63076 16.2456 3.63076C16.4114 3.63076 16.5703 3.69658 16.6875 3.81375ZM7.84875 12.6513C7.96592 12.7685 8.03174 12.9274 8.03174 13.0931C8.03174 13.2589 7.96592 13.4178 7.84875 13.535L5.19625 16.1875C5.07837 16.3013 4.9205 16.3643 4.75662 16.3629C4.59275 16.3615 4.43599 16.2958 4.32011 16.1799C4.20423 16.064 4.1385 15.9072 4.13708 15.7434C4.13565 15.5795 4.19865 15.4216 4.3125 15.3038L6.965 12.6513C7.0822 12.5341 7.24115 12.4683 7.40687 12.4683C7.5726 12.4683 7.73155 12.5341 7.84875 12.6513Z" fill="#F39C12"/>
</svg>
