<svg width="24" height="24" viewBox="0 0 24 24" fill="none" xmlns="http://www.w3.org/2000/svg">
<path d="M11.235 2.37401C10.867 2.52601 10.538 2.85601 9.87901 3.51401C9.22001 4.17401 8.89001 4.50301 8.73901 4.87001C8.63846 5.1127 8.58671 5.37282 8.58671 5.63551C8.58671 5.89821 8.63846 6.15832 8.73901 6.40101C8.89001 6.76901 9.21901 7.09801 9.87901 7.75701C10.537 8.41601 10.867 8.74601 11.235 8.89701C11.7248 9.0998 12.2752 9.0998 12.765 8.89701C13.133 8.74601 13.462 8.41701 14.121 7.75701C14.781 7.09801 15.109 6.76901 15.261 6.40101C15.4638 5.91117 15.4638 5.36085 15.261 4.87101C15.109 4.50301 14.781 4.17401 14.121 3.51501C13.462 2.85501 13.133 2.52601 12.765 2.37401C12.2752 2.17123 11.7248 2.17123 11.235 2.37401ZM4.87001 8.73801C4.50301 8.89001 4.17301 9.21901 3.51501 9.87801C2.85501 10.538 2.52601 10.867 2.37401 11.234C2.27346 11.4767 2.22171 11.7368 2.22171 11.9995C2.22171 12.2622 2.27346 12.5223 2.37401 12.765C2.52601 13.133 2.85601 13.462 3.51401 14.121C4.17401 14.78 4.50301 15.109 4.87001 15.261C5.11269 15.3616 5.37281 15.4133 5.63551 15.4133C5.8982 15.4133 6.15832 15.3616 6.40101 15.261C6.76901 15.109 7.09801 14.78 7.75701 14.121C8.41701 13.462 8.74501 13.133 8.89701 12.765C9.09979 12.2752 9.09979 11.7249 8.89701 11.235C8.74501 10.867 8.41701 10.537 7.75701 9.87801C7.09801 9.21901 6.76901 8.89001 6.40101 8.73801C5.91116 8.53523 5.35985 8.53523 4.87001 8.73801ZM16.243 9.87801C15.584 10.538 15.255 10.867 15.103 11.234C15.0025 11.4767 14.9507 11.7368 14.9507 11.9995C14.9507 12.2622 15.0025 12.5223 15.103 12.765C15.255 13.133 15.584 13.462 16.243 14.121C16.902 14.78 17.232 15.109 17.599 15.261C18.0888 15.4638 18.6392 15.4638 19.129 15.261C19.497 15.109 19.827 14.78 20.486 14.121C21.145 13.462 21.473 13.133 21.626 12.765C21.8288 12.2752 21.8288 11.7249 21.626 11.235C21.473 10.867 21.145 10.537 20.486 9.87801C19.826 9.21901 19.497 8.89001 19.13 8.73801C18.8873 8.63747 18.6272 8.58572 18.3645 8.58572C18.1018 8.58572 17.8417 8.63747 17.599 8.73801C17.232 8.89001 16.902 9.21901 16.243 9.87801ZM11.235 15.102C10.867 15.254 10.538 15.584 9.87901 16.242C9.22001 16.902 8.89001 17.231 8.73901 17.599C8.53622 18.0889 8.53622 18.6392 8.73901 19.129C8.89001 19.497 9.21901 19.826 9.87901 20.485C10.537 21.144 10.867 21.474 11.235 21.625C11.7248 21.8278 12.2752 21.8278 12.765 21.625C13.133 21.474 13.462 21.145 14.121 20.485C14.781 19.826 15.109 19.497 15.261 19.129C15.464 18.639 15.464 18.089 15.261 17.599C15.109 17.231 14.781 16.901 14.121 16.243C13.462 15.583 13.133 15.254 12.765 15.102C12.2752 14.8992 11.7248 14.8992 11.235 15.102Z" stroke="#F39C12" stroke-width="2" stroke-linecap="round" stroke-linejoin="round"/>
</svg>
