<svg width="16" height="16" viewBox="0 0 16 16" fill="none" xmlns="http://www.w3.org/2000/svg">
<path d="M8.00001 11.3334C8.35363 11.3334 8.69277 11.1929 8.94281 10.9429C9.19286 10.6928 9.33334 10.3537 9.33334 10.0001C9.33334 9.64646 9.19286 9.30732 8.94281 9.05727C8.69277 8.80722 8.35363 8.66675 8.00001 8.66675C7.64638 8.66675 7.30724 8.80722 7.0572 9.05727C6.80715 9.30732 6.66667 9.64646 6.66667 10.0001C6.66667 10.3537 6.80715 10.6928 7.0572 10.9429C7.30724 11.1929 7.64638 11.3334 8.00001 11.3334ZM12 5.33342C12.3536 5.33342 12.6928 5.47389 12.9428 5.72394C13.1929 5.97399 13.3333 6.31313 13.3333 6.66675V13.3334C13.3333 13.687 13.1929 14.0262 12.9428 14.2762C12.6928 14.5263 12.3536 14.6667 12 14.6667H4.00001C3.64638 14.6667 3.30724 14.5263 3.0572 14.2762C2.80715 14.0262 2.66667 13.687 2.66667 13.3334V6.66675C2.66667 6.31313 2.80715 5.97399 3.0572 5.72394C3.30724 5.47389 3.64638 5.33342 4.00001 5.33342H4.66667V4.00008C4.66667 3.11603 5.01786 2.26818 5.64298 1.64306C6.2681 1.01794 7.11595 0.666748 8.00001 0.666748C8.43774 0.666748 8.8712 0.752967 9.27562 0.920483C9.68004 1.088 10.0475 1.33353 10.357 1.64306C10.6666 1.95259 10.9121 2.32005 11.0796 2.72447C11.2471 3.12889 11.3333 3.56234 11.3333 4.00008V5.33342H12ZM8.00001 2.00008C7.46957 2.00008 6.96086 2.2108 6.58579 2.58587C6.21072 2.96094 6.00001 3.46965 6.00001 4.00008V5.33342H10V4.00008C10 3.46965 9.78929 2.96094 9.41422 2.58587C9.03915 2.2108 8.53044 2.00008 8.00001 2.00008Z" fill="#FF9955"/>
</svg>
