<svg width="30" height="30" viewBox="0 0 30 30" fill="none" xmlns="http://www.w3.org/2000/svg">
<path d="M27.8571 5.35712H2.14284C1.55111 5.35712 1.07141 5.83681 1.07141 6.42855V23.5714C1.07141 24.1631 1.55111 24.6428 2.14284 24.6428H27.8571C28.4489 24.6428 28.9286 24.1631 28.9286 23.5714V6.42855C28.9286 5.83681 28.4489 5.35712 27.8571 5.35712Z" stroke="#F39C12" stroke-width="2.14286" stroke-linecap="round" stroke-linejoin="round"/>
<path d="M18.2143 9.64282H6.42855C5.83681 9.64282 5.35712 10.1225 5.35712 10.7143V19.2857C5.35712 19.8774 5.83681 20.3571 6.42855 20.3571H18.2143C18.806 20.3571 19.2857 19.8774 19.2857 19.2857V10.7143C19.2857 10.1225 18.806 9.64282 18.2143 9.64282Z" stroke="#F39C12" stroke-width="2.14286" stroke-linecap="round" stroke-linejoin="round"/>
<path d="M23.5714 10.7142H24.6428M23.5714 13.9285H24.6428" stroke="#F39C12" stroke-width="2.14286" stroke-linecap="round" stroke-linejoin="round"/>
</svg>
