<svg width="70" height="70" viewBox="0 0 70 70" fill="none" xmlns="http://www.w3.org/2000/svg">
<path d="M23.3333 5.83325H46.6667M26.25 5.83325V9.75033M43.75 5.83325V13.9678C43.75 16.2714 44.432 18.5234 45.71 20.4399L47.6233 23.3099C48.9018 25.2273 49.5838 27.4804 49.5833 29.7849V33.0837M22.75 22.7499L22.3767 23.3099C21.0982 25.2273 20.4161 27.4804 20.4167 29.7849V58.3332C20.4167 59.8803 21.0312 61.3641 22.1252 62.458C23.2192 63.552 24.7029 64.1666 26.25 64.1666H43.75C45.2971 64.1666 46.7808 63.552 47.8748 62.458C48.9687 61.3641 49.5833 59.8803 49.5833 58.3332V49.5832" stroke="#F39C12" stroke-width="4" stroke-linecap="round" stroke-linejoin="round"/>
<path d="M20.4167 43.7499C22.7259 42.7825 25.2046 42.2843 27.7083 42.2843C30.212 42.2843 32.6907 42.7825 35 43.7499C38.1624 45.0749 41.6259 45.5135 45.0187 45.0187M5.83333 5.83325L64.1667 64.1666" stroke="#F39C12" stroke-width="4" stroke-linecap="round" stroke-linejoin="round"/>
</svg>
