<svg width="35" height="35" viewBox="0 0 35 35" fill="none" xmlns="http://www.w3.org/2000/svg">
<path d="M11.6666 2.91666H23.3333M13.125 2.91666V6.98395C13.1249 8.13572 12.784 9.26171 12.145 10.22L11.1883 11.655C10.5491 12.6137 10.2081 13.7402 10.2083 14.8925V29.1667C10.2083 29.9402 10.5156 30.6821 11.0626 31.229C11.6096 31.776 12.3514 32.0833 13.125 32.0833H21.875C22.6485 32.0833 23.3904 31.776 23.9374 31.229C24.4844 30.6821 24.7916 29.9402 24.7916 29.1667V14.891C24.7916 13.7393 24.4506 12.6133 23.8116 11.655L22.855 10.22C22.2157 9.2613 21.8747 8.13476 21.875 6.98249V2.91666" stroke="#F39C12" stroke-width="2.5" stroke-linecap="round" stroke-linejoin="round"/>
<path d="M10.2083 21.875C11.363 21.3914 12.6023 21.1424 13.8541 21.1424C15.106 21.1424 16.3453 21.3914 17.5 21.875C18.6546 22.3587 19.894 22.6078 21.1458 22.6078C22.3977 22.6078 23.637 22.3587 24.7916 21.875" stroke="#F39C12" stroke-width="2.5" stroke-linecap="round" stroke-linejoin="round"/>
</svg>
