<svg width="16" height="16" viewBox="0 0 16 16" fill="none" xmlns="http://www.w3.org/2000/svg">
<path d="M10.1926 9.78456C10.0947 9.75256 9.47628 9.47379 9.86275 8.29902H9.85721C10.8646 7.26149 11.6344 5.59195 11.6344 3.94826C11.6344 1.42087 9.95382 0.0959473 8.00059 0.0959473C6.04613 0.0959473 4.37475 1.42025 4.37475 3.94826C4.37475 5.59872 5.14028 7.27502 6.15382 8.3101C6.5489 9.34641 5.84244 9.73102 5.69475 9.78518C3.64921 10.5249 1.24921 11.8732 1.24921 13.2043V13.7033C1.24921 15.5169 4.76551 15.9292 8.01967 15.9292C11.2787 15.9292 14.7507 15.5169 14.7507 13.7033V13.2043C14.7507 11.8332 12.3391 10.4953 10.1926 9.78456Z" fill="#FF9955"/>
</svg>
