<svg width="70" height="70" viewBox="0 0 70 70" fill="none" xmlns="http://www.w3.org/2000/svg">
<path d="M11.6667 58.3334C10.0625 58.3334 8.6888 57.7618 7.54546 56.6184C6.40213 55.4751 5.83143 54.1023 5.83338 52.5001V17.5001C5.83338 15.8959 6.40505 14.5222 7.54838 13.3788C8.69171 12.2355 10.0645 11.6648 11.6667 11.6668H58.3334C59.9375 11.6668 61.3113 12.2384 62.4546 13.3818C63.598 14.5251 64.1687 15.8979 64.1667 17.5001V52.5001C64.1667 54.1043 63.595 55.478 62.4517 56.6213C61.3084 57.7647 59.9356 58.3354 58.3334 58.3334H11.6667ZM11.6667 52.5001H40.8334V17.5001H11.6667V52.5001ZM46.6667 52.5001H58.3334V17.5001H46.6667V52.5001ZM49.5834 26.2501H55.4167V20.4168H49.5834V26.2501ZM52.5 37.9168C53.3264 37.9168 54.0196 37.6368 54.5796 37.0768C55.1396 36.5168 55.4187 35.8245 55.4167 35.0001C55.4167 34.1737 55.1367 33.4805 54.5767 32.9205C54.0167 32.3605 53.3245 32.0815 52.5 32.0834C51.6737 32.0834 50.9805 32.3634 50.4205 32.9234C49.8605 33.4834 49.5814 34.1756 49.5834 35.0001C49.5834 35.8265 49.8634 36.5197 50.4234 37.0797C50.9834 37.6397 51.6756 37.9187 52.5 37.9168ZM52.5 49.5834C53.3264 49.5834 54.0196 49.3034 54.5796 48.7434C55.1396 48.1834 55.4187 47.4912 55.4167 46.6668C55.4167 45.8404 55.1367 45.1472 54.5767 44.5872C54.0167 44.0272 53.3245 43.7481 52.5 43.7501C51.6737 43.7501 50.9805 44.0301 50.4205 44.5901C49.8605 45.1501 49.5814 45.8423 49.5834 46.6668C49.5834 47.4931 49.8634 48.1863 50.4234 48.7463C50.9834 49.3063 51.6756 49.5854 52.5 49.5834ZM29.8959 46.6668C28.7292 46.6668 27.72 46.448 26.8684 46.0105C26.0167 45.573 25.2759 45.1598 24.6459 44.7709C24.1598 44.4306 23.7709 44.1759 23.4792 44.0068C23.1875 43.8376 22.8959 43.752 22.6042 43.7501C22.0695 43.7501 21.5348 43.9688 21 44.4063C20.4653 44.8438 20.0764 45.2084 19.8334 45.5001L15.6771 41.4168C16.2119 40.8334 17.0752 40.1043 18.2671 39.2293C19.4591 38.3543 20.9048 37.9168 22.6042 37.9168C23.7709 37.9168 24.78 38.1481 25.6317 38.6109C26.4834 39.0737 27.2242 39.4986 27.8542 39.8855C28.2917 40.1772 28.6806 40.4086 29.0209 40.5797C29.3612 40.7508 29.6528 40.8354 29.8959 40.8334C30.4306 40.8334 30.9653 40.6147 31.5 40.1772C32.0348 39.7397 32.4237 39.3751 32.6667 39.0834L36.823 43.1668C36.2882 43.7501 35.4259 44.4793 34.2359 45.3543C33.0459 46.2293 31.5992 46.6668 29.8959 46.6668ZM29.8959 32.0834C28.7292 32.0834 27.72 31.8647 26.8684 31.4272C26.0167 30.9897 25.2759 30.5765 24.6459 30.1876C24.1598 29.8473 23.7709 29.5926 23.4792 29.4234C23.1875 29.2543 22.8959 29.1687 22.6042 29.1668C22.0695 29.1668 21.5348 29.3855 21 29.823C20.4653 30.2605 20.0764 30.6251 19.8334 30.9168L15.6771 26.8334C16.2119 26.2501 17.0752 25.5209 18.2671 24.6459C19.4591 23.7709 20.9048 23.3334 22.6042 23.3334C23.7709 23.3334 24.78 23.5648 25.6317 24.0276C26.4834 24.4904 27.2242 24.9152 27.8542 25.3022C28.2917 25.5938 28.6806 25.8252 29.0209 25.9963C29.3612 26.1674 29.6528 26.252 29.8959 26.2501C30.4306 26.2501 30.9653 26.0313 31.5 25.5938C32.0348 25.1563 32.4237 24.7918 32.6667 24.5001L36.823 28.5834C36.2882 29.1668 35.4259 29.8959 34.2359 30.7709C33.0459 31.6459 31.5992 32.0834 29.8959 32.0834Z" fill="#F39C12"/>
</svg>
