<svg width="44" height="36" viewBox="0 0 44 36" fill="none" xmlns="http://www.w3.org/2000/svg">
<path d="M26.9179 0.464774C26.4692 0.200974 25.976 0.0639656 25.4763 0.0642705C24.9765 0.0645754 24.4834 0.202186 24.0349 0.466533L12.2361 7.23784L12.2258 7.24663C11.888 7.44932 11.5907 7.73723 11.3544 8.0906C11.1181 8.44397 10.9484 8.85445 10.857 9.29385C10.1047 9.06331 9.30842 9.16313 8.6122 9.57526L7.17439 10.4019L7.16265 10.4107C6.30437 10.9242 5.72044 11.976 5.72044 13.1966V16.0036L1.3087 18.5802L1.29403 18.589C0.909811 18.814 0.585325 19.1625 0.356814 19.5958C0.128304 20.0291 0.00476619 20.5299 0 21.0425V23.1882C0 24.1766 0.440147 25.1809 1.2955 25.6927L16.1915 34.4725C16.8448 34.8617 17.5644 35.0643 18.294 35.0643C19.0235 35.0643 19.7431 34.8617 20.3964 34.4725L42.6913 21.4628L42.706 21.4541C43.5599 20.944 44 19.9362 44 18.9496V16.8038C43.9948 16.2914 43.8709 15.7908 43.6422 15.3578C43.4134 14.9249 43.0888 14.5767 42.7045 14.3521L38.7623 12.027V9.38179C38.7605 8.80269 38.6247 8.23553 38.3701 7.74339C38.1155 7.25125 37.752 6.85341 37.32 6.59412L26.9238 0.47005L26.9179 0.464774ZM23.3424 18.4923C23.3424 18.1053 23.2823 17.729 23.1693 17.3807L23.6212 17.6481C23.9 17.8063 24.076 18.1581 24.076 18.5274V23.3289C24.076 23.751 23.7092 24.0324 23.3865 23.839L23.3424 23.8126V18.4923ZM5.72191 19.7762C5.72191 20.8825 6.25302 21.8533 7.02181 22.337L7.03795 22.3475L17.8685 28.7249L17.8846 28.7336C18.2341 28.9307 18.6153 29.0339 19.0015 29.036C19.3877 29.0381 19.7696 28.9392 20.1206 28.746L20.1352 28.7372L22.0015 27.6555L22.0176 27.645C22.6793 27.2492 23.1238 26.5352 23.2794 25.7244C23.9102 25.9636 24.5895 25.9038 25.1823 25.5802L25.1969 25.5731L37.4271 18.5415L37.4374 18.5345C38.2737 18.035 38.7623 17.0272 38.7623 15.9596V13.988L42.0487 15.9227C42.6942 16.3096 42.6942 17.4001 42.0487 17.787L19.7479 30.802C18.8383 31.3472 17.7526 31.3472 16.8429 30.802L1.95132 22.0274C1.80575 21.9421 1.6831 21.8095 1.5973 21.6447C1.51151 21.4799 1.46603 21.2895 1.46603 21.0953C1.46603 20.901 1.51151 20.7107 1.5973 20.5459C1.6831 20.3811 1.80575 20.2485 1.95132 20.1631L5.72191 17.9629V19.7779V19.7762ZM24.6629 2.04768C25.1764 1.74868 25.7633 1.74868 26.2914 2.04768L36.5762 8.11547C36.8696 8.29135 36.8696 8.80139 36.5762 8.97727L24.6482 15.8365C24.2814 16.0476 23.8706 16.0476 23.5185 15.8365L12.9843 9.62802C12.6909 9.45214 12.6909 8.94209 12.9843 8.76622L24.6629 2.04768ZM7.18906 14.8868C7.18906 14.535 7.49717 14.2888 7.77593 14.4471L18.5742 20.8139C18.6877 20.8805 18.7866 20.978 18.863 21.0986C18.9394 21.2192 18.9913 21.3596 19.0143 21.5086V26.4771C19.0143 26.5143 19.0173 26.5514 19.0231 26.5879C19.0114 26.6765 18.9824 26.7605 18.9383 26.8331C18.8943 26.9056 18.8366 26.9646 18.7699 27.0053C18.7032 27.0459 18.6295 27.0671 18.5546 27.067C18.4798 27.0669 18.4061 27.0456 18.3394 27.0048L7.71724 20.7435C7.55963 20.6574 7.42602 20.5188 7.33237 20.3441C7.23871 20.1695 7.18896 19.9662 7.18906 19.7586V14.8868ZM7.92264 11.9144L9.24308 11.1582C9.75659 10.8592 10.3434 10.8592 10.857 11.1582L21.1417 17.2084C21.4351 17.3842 21.4351 17.8943 21.1417 18.0702L19.5865 18.9847C19.2197 19.1958 18.8089 19.1958 18.4568 18.9847L7.92264 12.7762C7.62921 12.6004 7.62921 12.0903 7.92264 11.9144Z" fill="#F39C12"/>
</svg>
