<svg width="30" height="30" viewBox="0 0 30 30" fill="none" xmlns="http://www.w3.org/2000/svg">
<path opacity="0.2" fill-rule="evenodd" clip-rule="evenodd" d="M8.3355 19.1445C8.36007 18.987 8.43415 18.8415 8.547 18.729L22.638 4.63799C22.7786 4.49738 22.9694 4.4184 23.1682 4.4184C23.3671 4.4184 23.5578 4.49738 23.6985 4.63799L29.136 10.0755C29.2766 10.2161 29.3556 10.4069 29.3556 10.6057C29.3556 10.8046 29.2766 10.9953 29.136 11.136L15.045 25.227C14.9323 25.3393 14.7868 25.4128 14.6295 25.437L8.205 26.424C8.08863 26.4418 7.96969 26.432 7.85781 26.3954C7.74593 26.3587 7.64425 26.2962 7.56101 26.213C7.47776 26.1297 7.41528 26.0281 7.37862 25.9162C7.34196 25.8043 7.33216 25.6854 7.35 25.569L8.3355 19.1445Z" fill="#F39C12"/>
<path fill-rule="evenodd" clip-rule="evenodd" d="M5.916 17.685C5.94057 17.5276 6.01465 17.382 6.1275 17.2695L21.2445 2.15251C21.3851 2.01191 21.5759 1.93292 21.7747 1.93292C21.9736 1.93292 22.1644 2.01191 22.305 2.15251L28.14 7.98751C28.2801 8.1281 28.3588 8.31851 28.3588 8.51701C28.3588 8.71552 28.2801 8.90593 28.14 9.04651L13.02 24.165C12.9073 24.2773 12.7618 24.3509 12.6045 24.375L5.712 25.434C5.59563 25.4519 5.47669 25.4421 5.36481 25.4054C5.25293 25.3687 5.15125 25.3063 5.06801 25.223C4.98476 25.1398 4.92228 25.0381 4.88562 24.9262C4.84896 24.8143 4.83916 24.6954 4.857 24.579L5.9145 17.688L5.916 17.685ZM7.362 18.156L6.4965 23.796L12.135 22.929L26.547 8.51701L21.7755 3.74401L7.362 18.156Z" fill="#F39C12"/>
<path fill-rule="evenodd" clip-rule="evenodd" d="M23.208 12.2595L17.9025 6.96453L18.963 5.90253L24.267 11.1975L23.208 12.2595Z" fill="#F39C12"/>
</svg>
