<svg width="58" height="58" viewBox="0 0 58 58" fill="none" xmlns="http://www.w3.org/2000/svg">
<path d="M37.75 26.0833V26.1125M23.1667 11.5H27.5388L40.6638 2.75V13.8421C44.2735 15.9308 47.0217 19.2363 48.4163 23.1667H52.3275C53.101 23.1667 53.8429 23.474 54.3899 24.0209C54.9369 24.5679 55.2442 25.3098 55.2442 26.0833V31.9167C55.2442 32.6902 54.9369 33.4321 54.3899 33.9791C53.8429 34.526 53.101 34.8333 52.3275 34.8333H48.4133C48.2471 35.3 48.0633 35.7608 47.8592 36.21M43.5804 43.5833V47.9583C43.5804 49.1187 43.1195 50.2315 42.299 51.0519C41.4785 51.8724 40.3657 52.3333 39.2054 52.3333C38.0451 52.3333 36.9323 51.8724 36.1118 51.0519C35.2914 50.2315 34.8304 49.1187 34.8304 47.9583V46.2579C33.8666 46.4194 32.891 46.5003 31.9138 46.5H20.2471C19.2698 46.5003 18.2942 46.4194 17.3304 46.2579V47.9583C17.3304 49.1187 16.8695 50.2315 16.049 51.0519C15.2285 51.8724 14.1157 52.3333 12.9554 52.3333C11.7951 52.3333 10.6823 51.8724 9.86183 51.0519C9.04136 50.2315 8.58042 49.1187 8.58042 47.9583V42.0462C6.41386 40.1094 4.76376 37.6635 3.77906 34.9293C2.79436 32.1951 2.50608 29.2587 2.94022 26.3852C3.37437 23.5118 4.51729 20.7916 6.2658 18.4704C8.01431 16.1492 10.3134 14.2999 12.9554 13.0896M2.75001 2.75L55.25 55.25" stroke="#F39C12" stroke-width="4" stroke-linecap="round" stroke-linejoin="round"/>
</svg>
