<svg width="70" height="70" viewBox="0 0 70 70" fill="none" xmlns="http://www.w3.org/2000/svg">
<path d="M68.8023 10.8418C68.7549 10.04 68.415 9.28344 67.847 8.71548C67.2791 8.14753 66.5225 7.80762 65.7207 7.76016C51.152 6.90156 39.416 11.416 34.3191 19.8297C30.9996 25.2984 30.8848 31.9074 33.9199 38.232C32.6218 39.8871 31.5853 41.7314 30.8465 43.7008L28.1941 41.0484C30.1602 36.4629 29.9523 31.7215 27.5379 27.7348C23.7152 21.4266 15.009 18.0469 4.25196 18.6703C3.45015 18.7178 2.6936 19.0577 2.12564 19.6256C1.55768 20.1936 1.21778 20.9501 1.17032 21.752C0.54688 32.509 3.92657 41.2152 10.2402 45.0379C12.3816 46.343 14.8419 47.031 17.3496 47.0258C19.4876 47.0083 21.5996 46.5552 23.5566 45.6941L29.5313 51.6797V59.0625C29.5313 59.9327 29.877 60.7673 30.4923 61.3827C31.1077 61.998 31.9423 62.3438 32.8125 62.3438C33.6827 62.3438 34.5173 61.998 35.1327 61.3827C35.7481 60.7673 36.0938 59.9327 36.0938 59.0625V50.9988C36.087 48.0657 36.994 45.2034 38.6887 42.8094C41.432 44.1141 44.4257 44.8082 47.4633 44.8438C50.7324 44.8515 53.9401 43.9564 56.7328 42.257C65.1465 37.1465 69.6609 25.4078 68.8023 10.8418ZM13.6391 39.4242C10.0324 37.2367 7.84766 31.9156 7.66993 25.1699C14.4156 25.3477 19.7395 27.5352 21.9242 31.1391C22.7786 32.5288 23.1291 34.17 22.9168 35.7875L19.8188 32.6785C19.2023 32.0621 18.3663 31.7158 17.4945 31.7158C16.6228 31.7158 15.7867 32.0621 15.1703 32.6785C14.5539 33.2949 14.2076 34.131 14.2076 35.0027C14.2076 35.8745 14.5539 36.7105 15.1703 37.327L18.2711 40.4277C16.658 40.6269 15.0251 40.2731 13.6391 39.4242ZM53.334 36.6406C50.4191 38.4043 47.0449 38.7379 43.5422 37.6688L53.7277 27.4859C54.3442 26.8695 54.6905 26.0335 54.6905 25.1617C54.6905 24.29 54.3442 23.4539 53.7277 22.8375C53.1113 22.2211 52.2753 21.8748 51.4035 21.8748C50.5318 21.8748 49.6957 22.2211 49.0793 22.8375L38.8938 33.0203C37.8356 29.5313 38.1691 26.1434 39.9219 23.2422C43.4137 17.4754 51.6797 14.1996 62.3438 14.2188C62.382 24.8828 59.1008 33.1352 53.334 36.6406Z" fill="#F39C12"/>
</svg>
