<svg width="25" height="24" viewBox="0 0 25 24" fill="none" xmlns="http://www.w3.org/2000/svg">
<path d="M15.4752 5.9595C15.6131 5.9595 15.7497 5.93234 15.877 5.87957C16.0044 5.8268 16.1202 5.74946 16.2177 5.65196C16.3152 5.55446 16.3925 5.43871 16.4453 5.31131C16.4981 5.18392 16.5252 5.04739 16.5252 4.9095C16.5252 4.77161 16.4981 4.63507 16.4453 4.50768C16.3925 4.38029 16.3152 4.26454 16.2177 4.16703C16.1202 4.06953 16.0044 3.99219 15.877 3.93942C15.7497 3.88666 15.6131 3.8595 15.4752 3.8595C15.1968 3.8595 14.9297 3.97012 14.7328 4.16703C14.5359 4.36395 14.4252 4.63102 14.4252 4.9095C14.4252 5.18797 14.5359 5.45505 14.7328 5.65196C14.9297 5.84887 15.1968 5.9595 15.4752 5.9595ZM15.7452 10.122C15.7452 10.486 15.6006 10.8351 15.3432 11.0925C15.0858 11.3499 14.7367 11.4945 14.3727 11.4945C14.0087 11.4945 13.6596 11.3499 13.4022 11.0925C13.1448 10.8351 13.0002 10.486 13.0002 10.122C13.0002 9.75799 13.1448 9.40889 13.4022 9.15149C13.6596 8.8941 14.0087 8.7495 14.3727 8.7495C14.7367 8.7495 15.0858 8.8941 15.3432 9.15149C15.6006 9.40889 15.7452 9.75799 15.7452 10.122ZM9.25773 14.2545C9.25773 14.5887 9.12498 14.9092 8.88869 15.1455C8.65239 15.3817 8.3319 15.5145 7.99773 15.5145C7.66356 15.5145 7.34307 15.3817 7.10678 15.1455C6.87048 14.9092 6.73773 14.5887 6.73773 14.2545C6.73773 13.9203 6.87048 13.5998 7.10678 13.3635C7.34307 13.1272 7.66356 12.9945 7.99773 12.9945C8.3319 12.9945 8.65239 13.1272 8.88869 13.3635C9.12498 13.5998 9.25773 13.9203 9.25773 14.2545ZM8.98023 18.777C9.21097 18.777 9.43226 18.6853 9.59541 18.5222C9.75857 18.359 9.85023 18.1377 9.85023 17.907C9.85023 17.6763 9.75857 17.455 9.59541 17.2918C9.43226 17.1287 9.21097 17.037 8.98023 17.037C8.74949 17.037 8.52821 17.1287 8.36505 17.2918C8.20189 17.455 8.11023 17.6763 8.11023 17.907C8.11023 18.1377 8.20189 18.359 8.36505 18.5222C8.52821 18.6853 8.74949 18.777 8.98023 18.777ZM19.7427 10.992C19.7427 11.2227 19.6511 11.444 19.4879 11.6072C19.3248 11.7703 19.1035 11.862 18.8727 11.862C18.642 11.862 18.4207 11.7703 18.2575 11.6072C18.0944 11.444 18.0027 11.2227 18.0027 10.992C18.0027 10.7613 18.0944 10.54 18.2575 10.3768C18.4207 10.2137 18.642 10.122 18.8727 10.122C19.1035 10.122 19.3248 10.2137 19.4879 10.3768C19.6511 10.54 19.7427 10.7613 19.7427 10.992Z" fill="#D35400"/>
<path d="M18.263 1.51572C16.5779 0.722081 14.6693 0.538968 12.8641 0.997736C11.0588 1.4565 9.46923 2.52861 8.36749 4.03047L4.43749 9.38547C1.19524 13.8015 2.79649 20.0805 7.75249 22.4107C12.128 24.4702 17.3315 22.5652 19.358 18.1837C19.9629 16.8785 20.5661 15.5725 21.1677 14.2657L22.1405 12.153C23.9855 8.14797 22.2567 3.40047 18.263 1.51572ZM9.57799 4.91772C10.4738 3.69694 11.766 2.82543 13.2334 2.45234C14.7009 2.07924 16.2524 2.22776 17.6225 2.87247C20.8737 4.40697 22.2792 8.26947 20.7792 11.5252L19.8065 13.6372V13.6387C19.319 14.6962 19.3077 14.7217 17.9967 17.5537C16.319 21.183 12.0117 22.7572 8.39224 21.0532C4.28899 19.1235 2.96449 13.9267 5.64724 10.2727L9.57724 4.91772H9.57799Z" fill="#D35400"/>
</svg>
