<svg width="18" height="16" viewBox="0 0 18 16" fill="none" xmlns="http://www.w3.org/2000/svg">
<path d="M1.46997 7.46937L7.46967 1.46967C7.76256 1.17678 8.23744 1.17678 8.53033 1.46967C8.82322 1.76256 8.82322 2.23744 8.53033 2.53033L3.81066 7.25L16 7.25C16.4142 7.25 16.75 7.58579 16.75 8C16.75 8.41421 16.4142 8.75 16 8.75L3.81066 8.75L8.53033 13.4697C8.82322 13.7626 8.82322 14.2374 8.53033 14.5303C8.23744 14.8232 7.76256 14.8232 7.46967 14.5303L1.46997 8.53063C1.46987 8.53053 1.46977 8.53043 1.46967 8.53033L1.46997 7.46937ZM1.46997 7.46937C1.46987 7.46947 1.46977 7.46957 1.46967 7.46967L1.46997 7.46937ZM1.30691 7.71291C1.34324 7.62511 1.39696 7.5428 1.46808 7.47126L1.30691 7.71291ZM1.30691 7.71291C1.27024 7.80134 1.25 7.89831 1.25 8C1.25 8.10169 1.27024 8.19866 1.30691 8.28709C1.34324 8.37489 1.39696 8.4572 1.46808 8.52874L1.30691 7.71291Z" fill="#D35400" stroke="white" stroke-width="1.5" stroke-linecap="round" stroke-linejoin="round"/>
</svg>
