<svg width="14" height="21" viewBox="0 0 14 21" fill="none" xmlns="http://www.w3.org/2000/svg">
<path d="M4.08215 6.5C4.08215 5.12109 5.20325 4 6.58215 4H7.83215C9.21106 4 10.3322 5.12109 10.3322 6.5V6.64062C10.3322 7.49219 9.89856 8.28516 9.18372 8.74219L7.53528 9.80078C7.05128 10.112 6.65316 10.5397 6.37743 11.0448C6.1017 11.5498 5.95719 12.116 5.95715 12.6914V12.75C5.95715 13.4414 6.51575 14 7.20715 14C7.89856 14 8.45715 13.4414 8.45715 12.75V12.6953C8.45715 12.375 8.62122 12.0781 8.88684 11.9062L10.5353 10.8477C11.965 9.92578 12.8322 8.34375 12.8322 6.64062V6.5C12.8322 3.73828 10.5939 1.5 7.83215 1.5H6.58215C3.82043 1.5 1.58215 3.73828 1.58215 6.5C1.58215 7.19141 2.14075 7.75 2.83215 7.75C3.52356 7.75 4.08215 7.19141 4.08215 6.5ZM7.20715 19C7.62155 19 8.01898 18.8354 8.31201 18.5424C8.60503 18.2493 8.76965 17.8519 8.76965 17.4375C8.76965 17.0231 8.60503 16.6257 8.31201 16.3326C8.01898 16.0396 7.62155 15.875 7.20715 15.875C6.79275 15.875 6.39532 16.0396 6.1023 16.3326C5.80927 16.6257 5.64465 17.0231 5.64465 17.4375C5.64465 17.8519 5.80927 18.2493 6.1023 18.5424C6.39532 18.8354 6.79275 19 7.20715 19Z" fill="#F39C12"/>
</svg>
