<svg width="70" height="70" viewBox="0 0 70 70" fill="none" xmlns="http://www.w3.org/2000/svg">
<path d="M51.0416 45.2082C51.0416 48.4458 48.4458 51.0416 45.2083 51.0416C41.9708 51.0416 39.375 48.4458 39.375 45.2082C39.375 41.9707 42 39.3749 45.2083 39.3749C48.4166 39.3749 51.0416 41.9999 51.0416 45.2082ZM24.7916 39.3749C21.5833 39.3749 18.9583 41.9999 18.9583 45.2082C18.9583 48.4166 21.5833 51.0416 24.7916 51.0416C28 51.0416 30.625 48.4458 30.625 45.2082C30.625 41.9707 28.0291 39.3749 24.7916 39.3749ZM67.0833 43.7499V52.4999C67.0833 54.1041 65.7708 55.4166 64.1666 55.4166H61.25V58.3332C61.25 61.5707 58.6541 64.1666 55.4166 64.1666H14.5833C13.0362 64.1666 11.5525 63.552 10.4585 62.458C9.36454 61.3641 8.74996 59.8803 8.74996 58.3332V55.4166H5.83329C4.22913 55.4166 2.91663 54.1041 2.91663 52.4999V43.7499C2.91663 42.1457 4.22913 40.8333 5.83329 40.8333H8.74996C8.74996 29.5458 17.8791 20.4166 29.1666 20.4166H32.0833V16.7124C30.3333 15.7208 29.1666 13.8249 29.1666 11.6666C29.1666 8.45825 31.7916 5.83325 35 5.83325C38.2083 5.83325 40.8333 8.45825 40.8333 11.6666C40.8333 13.8249 39.6666 15.7208 37.9166 16.7124V20.4166H40.8333C52.1208 20.4166 61.25 29.5458 61.25 40.8333H64.1666C65.7708 40.8333 67.0833 42.1457 67.0833 43.7499ZM61.25 46.6666H55.4166V40.8333C55.4166 32.7833 48.8833 26.2499 40.8333 26.2499H29.1666C21.1166 26.2499 14.5833 32.7833 14.5833 40.8333V46.6666H8.74996V49.5832H14.5833V58.3332H55.4166V49.5832H61.25V46.6666Z" fill="#F39C12"/>
</svg>
