<svg width="30" height="30" viewBox="0 0 30 30" fill="none" xmlns="http://www.w3.org/2000/svg">
<path d="M10.3845 7.24947C10.8461 6.39609 11.5352 5.68733 12.3753 5.20186C13.2154 4.71639 14.1735 4.47321 15.1434 4.49932C16.1133 4.52542 17.057 4.81979 17.8697 5.34974C18.6825 5.87969 19.3324 6.62449 19.7475 7.50147C18.6549 7.52627 17.5932 7.86872 16.6921 8.48697C15.7909 9.10523 15.0893 9.97254 14.673 10.983C14.2893 10.3433 13.8295 9.75245 13.3035 9.22347C12.4583 8.3938 11.4692 7.7249 10.3845 7.24947ZM25.488 13.5C25.5735 12.2198 25.219 10.9488 24.4832 9.89769C23.7474 8.84657 22.6746 8.07839 21.4425 7.72047C21.0382 6.43963 20.2611 5.30844 19.2106 4.47151C18.1601 3.63457 16.8839 3.1299 15.5451 3.02201C14.2063 2.91412 12.8658 3.20791 11.6948 3.86583C10.5239 4.52375 9.57568 5.5159 8.9715 6.71547C8.37477 6.52999 7.7671 6.3817 7.152 6.27147C6.11158 6.08423 5.05611 5.99335 3.999 5.99997C3.90696 6.00165 3.81495 6.00465 3.723 6.00897H3.717C3.53363 6.02001 3.36065 6.09783 3.23075 6.22773C3.10085 6.35762 3.02303 6.5306 3.012 6.71397V6.71547C2.99959 7.05185 2.99909 7.38856 3.0105 7.72497C3.03 8.33847 3.0945 9.19047 3.2685 10.1535C3.453 11.1765 3.765 12.3495 4.296 13.4985H3.75C3.55109 13.4985 3.36032 13.5775 3.21967 13.7181C3.07902 13.8588 3 14.0496 3 14.2485V14.9985C3 18.1811 4.26428 21.2333 6.51472 23.4838C8.76516 25.7342 11.8174 26.9985 15 26.9985C18.1826 26.9985 21.2348 25.7342 23.4853 23.4838C25.7357 21.2333 27 18.1811 27 14.9985V14.2485C27 14.0496 26.921 13.8588 26.7803 13.7181C26.6397 13.5775 26.4489 13.4985 26.25 13.4985H25.488V13.5ZM5.976 13.5C5.325 12.327 4.953 11.0415 4.746 9.88797C4.60433 9.10033 4.5231 8.30301 4.503 7.50297L4.674 7.50897C5.232 7.52847 6.009 7.58847 6.885 7.74747C8.655 8.06697 10.734 8.77497 12.243 10.284C13.167 11.208 13.7925 12.348 14.2125 13.5H11.562L8.781 10.719C8.71127 10.6493 8.6285 10.5941 8.53743 10.5565C8.44636 10.5188 8.34877 10.4995 8.25022 10.4996C8.15167 10.4996 8.05411 10.5191 7.96309 10.5569C7.87207 10.5947 7.78938 10.65 7.71975 10.7197C7.65012 10.7895 7.5949 10.8722 7.55725 10.9633C7.5196 11.0544 7.50026 11.152 7.50033 11.2505C7.5004 11.3491 7.51988 11.4466 7.55766 11.5376C7.59543 11.6287 7.65077 11.7113 7.7205 11.781L9.441 13.5H5.976ZM15.798 13.5C15.7848 13.4594 15.7713 13.4189 15.7575 13.3785C15.7249 12.8126 15.8092 12.246 16.0053 11.7142C16.2013 11.1823 16.5049 10.6966 16.897 10.2873C17.2892 9.87797 17.7614 9.55387 18.2844 9.33521C18.8074 9.11655 19.3698 9.00802 19.9366 9.01639C20.5033 9.02476 21.0623 9.14985 21.5786 9.38386C22.0949 9.61787 22.5574 9.95577 22.9373 10.3765C23.3171 10.7972 23.6062 11.2917 23.7865 11.8291C23.9668 12.3665 24.0343 12.9353 23.985 13.5H15.7995H15.798ZM4.5 15H25.5C25.5 16.0425 25.3485 17.049 25.065 18H4.935C4.64567 17.0263 4.49915 16.0157 4.5 15ZM15 25.5C13.0126 25.5004 11.066 24.9368 9.38626 23.8747C7.70654 22.8126 6.36272 21.2956 5.511 19.5H24.489C23.6373 21.2956 22.2935 22.8126 20.6137 23.8747C18.934 24.9368 16.9874 25.5004 15 25.5Z" fill="#F39C12"/>
</svg>
