<svg width="35" height="35" viewBox="0 0 35 35" fill="none" xmlns="http://www.w3.org/2000/svg">
<path d="M5.83333 11.6667H29.1667C29.5534 11.6667 29.9244 11.8203 30.1979 12.0938C30.4714 12.3673 30.625 12.7382 30.625 13.125V13.8542C30.625 16.0417 26.9544 21.9815 24.7917 23.3333V24.7917C24.7917 25.1784 24.638 25.5494 24.3645 25.8229C24.091 26.0964 23.7201 26.25 23.3333 26.25H11.6667C11.2799 26.25 10.909 26.0964 10.6355 25.8229C10.362 25.5494 10.2083 25.1784 10.2083 24.7917V23.3333C7.74813 21.7963 4.375 16.0417 4.375 13.8542V13.125C4.375 12.7382 4.52865 12.3673 4.80214 12.0938C5.07563 11.8203 5.44656 11.6667 5.83333 11.6667Z" stroke="#F39C12" stroke-width="2.91667" stroke-linecap="round" stroke-linejoin="round"/>
</svg>
