<svg width="25" height="24" viewBox="0 0 25 24" fill="none" xmlns="http://www.w3.org/2000/svg">
<path d="M6 5.5C5.33696 5.5 4.70107 5.76339 4.23223 6.23223C3.76339 6.70107 3.5 7.33696 3.5 8C3.5 15.18 9.32 21 16.5 21C17.163 21 17.7989 20.7366 18.2678 20.2678C18.7366 19.7989 19 19.163 19 18.5C19 17.837 18.7366 17.2011 18.2678 16.7322C17.7989 16.2634 17.163 16 16.5 16C14.3783 16 12.3434 15.1571 10.8431 13.6569C9.34285 12.1566 8.5 10.1217 8.5 8C8.5 7.33696 8.23661 6.70107 7.76777 6.23223C7.29893 5.76339 6.66304 5.5 6 5.5Z" stroke="#D35400" stroke-linecap="round" stroke-linejoin="round"/>
<path d="M5.69499 5.519L4.45199 3.53C4.35738 3.37863 4.30502 3.20469 4.30033 3.02625C4.29565 2.8478 4.33881 2.67136 4.42535 2.51523C4.51188 2.3591 4.63863 2.22898 4.79243 2.13838C4.94623 2.04778 5.12149 2 5.29999 2H6.69199C6.8705 2 7.04575 2.04778 7.19955 2.13838C7.35335 2.22898 7.4801 2.3591 7.56663 2.51523C7.65317 2.67136 7.69633 2.8478 7.69165 3.02625C7.68696 3.20469 7.6346 3.37863 7.53999 3.53L6.29499 5.52M18.982 18.225L20.971 16.982C21.1224 16.8874 21.2963 16.835 21.4747 16.8303C21.6532 16.8257 21.8296 16.8688 21.9858 16.9554C22.1419 17.0419 22.272 17.1686 22.3626 17.3224C22.4532 17.4762 22.501 17.6515 22.501 17.83V19.222C22.501 19.4005 22.4532 19.5758 22.3626 19.7296C22.272 19.8834 22.1419 20.0101 21.9858 20.0966C21.8296 20.1832 21.6532 20.2263 21.4747 20.2217C21.2963 20.217 21.1224 20.1646 20.971 20.07L18.98 18.825" stroke="#D35400" stroke-linecap="round" stroke-linejoin="round"/>
</svg>
