<svg width="24" height="25" viewBox="0 0 24 25" fill="none" xmlns="http://www.w3.org/2000/svg">
<path d="M19.6 21.8938L13.3 15.5938C12.8 15.9938 12.225 16.3105 11.575 16.5438C10.925 16.7771 10.2333 16.8938 9.5 16.8938C7.68333 16.8938 6.146 16.2645 4.888 15.0058C3.63 13.7471 3.00067 12.2098 3 10.3938C3 8.57713 3.62933 7.0398 4.888 5.7818C6.14667 4.5238 7.684 3.89447 9.5 3.8938C11.3167 3.8938 12.854 4.52313 14.112 5.7818C15.37 7.04047 15.9993 8.5778 16 10.3938C16 11.1271 15.8833 11.8188 15.65 12.4688C15.4167 13.1188 15.1 13.6938 14.7 14.1938L21 20.4938L19.6 21.8938ZM9.5 14.8938C10.75 14.8938 11.8127 14.4561 12.688 13.5808C13.5633 12.7055 14.0007 11.6431 14 10.3938C14 9.1438 13.5623 8.08113 12.687 7.2058C11.8117 6.33047 10.7493 5.89313 9.5 5.8938C8.25 5.8938 7.18733 6.33147 6.312 7.2068C5.43667 8.08213 4.99933 9.14447 5 10.3938C5 11.6438 5.43767 12.7065 6.313 13.5818C7.18833 14.4571 8.25067 14.8945 9.5 14.8938Z" fill="#D35400"/>
</svg>
