<svg width="30" height="30" viewBox="0 0 30 30" fill="none" xmlns="http://www.w3.org/2000/svg">
<path d="M7.8125 3.75C6.73506 3.75 5.70174 4.17801 4.93988 4.93988C4.17801 5.70174 3.75 6.73506 3.75 7.8125V22.1875C3.75 23.2649 4.17801 24.2983 4.93988 25.0601C5.70174 25.822 6.73506 26.25 7.8125 26.25H15.0275C14.6529 25.6656 14.355 25.0354 14.1412 24.375H7.8125C7.23234 24.375 6.67594 24.1445 6.2657 23.7343C5.85547 23.3241 5.625 22.7677 5.625 22.1875V7.8125C5.625 6.605 6.605 5.625 7.8125 5.625H22.1875C23.395 5.625 24.375 6.605 24.375 7.8125V14.1412C25.0354 14.355 25.6656 14.6529 26.25 15.0275V7.8125C26.25 6.73506 25.822 5.70174 25.0601 4.93988C24.2983 4.17801 23.2649 3.75 22.1875 3.75H7.8125ZM15.625 11.5625C15.625 11.3139 15.7238 11.0754 15.8996 10.8996C16.0754 10.7238 16.3139 10.625 16.5625 10.625H20.9375C21.1861 10.625 21.4246 10.7238 21.6004 10.8996C21.7762 11.0754 21.875 11.3139 21.875 11.5625C21.875 11.8111 21.7762 12.0496 21.6004 12.2254C21.4246 12.4012 21.1861 12.5 20.9375 12.5H16.5625C16.3139 12.5 16.0754 12.4012 15.8996 12.2254C15.7238 12.0496 15.625 11.8111 15.625 11.5625ZM13.475 10.975C13.5671 10.8892 13.641 10.7857 13.6922 10.6707C13.7435 10.5557 13.771 10.4315 13.7732 10.3057C13.7755 10.1798 13.7523 10.0547 13.7052 9.938C13.658 9.82127 13.5878 9.71522 13.4988 9.6262C13.4098 9.53718 13.3037 9.467 13.187 9.41985C13.0703 9.37269 12.9452 9.34954 12.8193 9.35176C12.6935 9.35398 12.5693 9.38153 12.4543 9.43277C12.3393 9.48401 12.2358 9.55789 12.15 9.65L10.3125 11.4875L9.725 10.9C9.54728 10.7344 9.31222 10.6442 9.06935 10.6485C8.82647 10.6528 8.59474 10.7512 8.42297 10.923C8.25121 11.0947 8.15282 11.3265 8.14853 11.5693C8.14425 11.8122 8.2344 12.0473 8.4 12.225L9.65 13.475C9.82578 13.6506 10.0641 13.7492 10.3125 13.7492C10.5609 13.7492 10.7992 13.6506 10.975 13.475L13.475 10.975ZM13.475 16.525C13.6506 16.7008 13.7492 16.9391 13.7492 17.1875C13.7492 17.4359 13.6506 17.6742 13.475 17.85L10.975 20.35C10.7992 20.5256 10.5609 20.6242 10.3125 20.6242C10.0641 20.6242 9.82578 20.5256 9.65 20.35L8.4 19.1C8.30789 19.0142 8.23401 18.9107 8.18277 18.7957C8.13153 18.6807 8.10398 18.5565 8.10176 18.4307C8.09954 18.3048 8.12269 18.1797 8.16985 18.063C8.217 17.9463 8.28718 17.8402 8.3762 17.7512C8.46523 17.6622 8.57127 17.592 8.688 17.5448C8.80474 17.4977 8.92977 17.4745 9.05565 17.4768C9.18153 17.479 9.30567 17.5065 9.42067 17.5578C9.53567 17.609 9.63917 17.6829 9.725 17.775L10.3125 18.3625L12.15 16.525C12.3258 16.3494 12.5641 16.2508 12.8125 16.2508C13.0609 16.2508 13.2992 16.3494 13.475 16.525ZM28.75 21.875C28.75 20.0516 28.0257 18.303 26.7364 17.0136C25.447 15.7243 23.6984 15 21.875 15C20.0516 15 18.303 15.7243 17.0136 17.0136C15.7243 18.303 15 20.0516 15 21.875C15 23.6984 15.7243 25.447 17.0136 26.7364C18.303 28.0257 20.0516 28.75 21.875 28.75C23.6984 28.75 25.447 28.0257 26.7364 26.7364C28.0257 25.447 28.75 23.6984 28.75 21.875ZM22.5 22.5L22.5012 25.6287C22.5012 25.7945 22.4354 25.9535 22.3182 26.0707C22.201 26.1879 22.042 26.2537 21.8762 26.2537C21.7105 26.2537 21.5515 26.1879 21.4343 26.0707C21.3171 25.9535 21.2512 25.7945 21.2512 25.6287V22.5H18.12C17.9542 22.5 17.7953 22.4342 17.6781 22.3169C17.5608 22.1997 17.495 22.0408 17.495 21.875C17.495 21.7092 17.5608 21.5503 17.6781 21.4331C17.7953 21.3158 17.9542 21.25 18.12 21.25H21.25V18.125C21.25 17.9592 21.3158 17.8003 21.4331 17.6831C21.5503 17.5658 21.7092 17.5 21.875 17.5C22.0408 17.5 22.1997 17.5658 22.3169 17.6831C22.4342 17.8003 22.5 17.9592 22.5 18.125V21.25H25.6212C25.787 21.25 25.946 21.3158 26.0632 21.4331C26.1804 21.5503 26.2462 21.7092 26.2462 21.875C26.2462 22.0408 26.1804 22.1997 26.0632 22.3169C25.946 22.4342 25.787 22.5 25.6212 22.5H22.5Z" fill="white"/>
</svg>
