<svg width="25" height="24" viewBox="0 0 25 24" fill="none" xmlns="http://www.w3.org/2000/svg">
<path d="M3.5 6.2V17.8C3.5 18.92 3.5 19.48 3.718 19.907C3.91 20.284 4.215 20.59 4.592 20.782C5.019 21 5.579 21 6.697 21H18.303C19.421 21 19.98 21 20.407 20.782C20.7838 20.5902 21.0902 20.2838 21.282 19.907C21.5 19.48 21.5 18.921 21.5 17.803V6.197C21.5 5.079 21.5 4.519 21.282 4.092C21.0899 3.71558 20.7836 3.40963 20.407 3.218C19.98 3 19.42 3 18.3 3H6.7C5.58 3 5.02 3 4.592 3.218C4.21565 3.40969 3.90969 3.71565 3.718 4.092C3.5 4.52 3.5 5.08 3.5 6.2Z" stroke="#348E5A" stroke-width="2" stroke-linecap="round" stroke-linejoin="round"/>
</svg>
