<svg width="25" height="24" viewBox="0 0 25 24" fill="none" xmlns="http://www.w3.org/2000/svg">
<g clip-path="url(#clip0_99_121)">
<path d="M15.2771 4.28577C7.85426 4.28577 1.35712 5.40005 1.35712 10.2858C1.49119 11.5196 2.10638 12.6507 3.06918 13.4338C4.03199 14.2169 5.26474 14.5887 6.49997 14.4686C7.25052 14.468 7.99446 14.3285 8.69426 14.0572C8.91054 13.9628 9.14399 13.9141 9.37997 13.9141C9.61596 13.9141 9.8494 13.9628 10.0657 14.0572C11.6621 14.9398 13.4531 15.4111 15.2771 15.4286C19.9057 15.4286 23.6428 12.9258 23.6428 9.8572C23.6428 6.78862 19.9057 4.28577 15.2771 4.28577Z" stroke="#D35400" stroke-linecap="round" stroke-linejoin="round"/>
<path d="M23.6428 9.85718V14.1429C23.6428 17.2115 19.9057 19.7143 15.2771 19.7143C13.4518 19.7394 11.6489 19.3093 10.0314 18.4629C9.81513 18.3685 9.58169 18.3198 9.3457 18.3198C9.10972 18.3198 8.87627 18.3685 8.65999 18.4629C7.95908 18.7283 7.21517 18.862 6.4657 18.8572C5.23047 18.9773 3.99772 18.6054 3.03491 17.8223C2.0721 17.0393 1.45692 15.9081 1.32285 14.6743V10.2857" stroke="#D35400" stroke-linecap="round" stroke-linejoin="round"/>
<path d="M7.35714 10.2858C7.83053 10.2858 8.21429 9.90206 8.21429 9.42868C8.21429 8.95529 7.83053 8.57153 7.35714 8.57153C6.88376 8.57153 6.5 8.95529 6.5 9.42868C6.5 9.90206 6.88376 10.2858 7.35714 10.2858Z" stroke="#D35400" stroke-linecap="round" stroke-linejoin="round"/>
</g>
<defs>
<clipPath id="clip0_99_121">
<rect width="24" height="24" fill="white" transform="translate(0.5)"/>
</clipPath>
</defs>
</svg>
