<svg width="30" height="30" viewBox="0 0 30 30" fill="none" xmlns="http://www.w3.org/2000/svg">
<path d="M6.74197 1.28729V1.83473C6.74197 7.80854 8.97779 12.9469 12.3871 14.848V15.2051C8.97773 17.1061 6.74191 22.2445 6.74191 28.2184V28.7659H23.5435V28.2184C23.5435 22.2095 21.2699 17.0695 17.8289 15.1996V14.8535C21.2696 12.9834 23.5435 7.84335 23.5435 1.83468V1.28729H6.74179H6.74197ZM7.85156 2.38212H22.4341C22.2889 8.03319 19.9297 12.6667 17.0471 14.0368L16.734 14.1851V15.8698L17.0471 16.018C19.9295 17.3881 22.2887 22.0202 22.4341 27.6709H7.85156C7.99546 22.0519 10.3198 17.4124 13.1763 16.0144L13.4839 15.8642V14.1888L13.1763 14.0387C10.3199 12.6407 7.9954 8.00114 7.85156 2.38212ZM20.3705 7.4285C16.9951 9.05799 13.074 9.05975 9.96644 7.66844C10.8251 10.6512 12.5338 12.7741 14.5441 13.125C14.4503 13.2488 14.3995 13.3999 14.3994 13.5553C14.3994 13.9514 14.721 14.2731 15.1172 14.2731C15.5134 14.2731 15.835 13.9514 15.835 13.5553C15.835 13.3959 15.7818 13.2496 15.694 13.1305C17.7697 12.786 19.5312 10.5482 20.3705 7.4285ZM15.1172 15.1539C14.721 15.1539 14.3994 15.4754 14.3994 15.8716C14.3994 16.2678 14.721 16.5894 15.1172 16.5894C15.5134 16.5894 15.835 16.2678 15.835 15.8716C15.835 15.4754 15.5134 15.1539 15.1172 15.1539ZM15.1172 17.4554C14.721 17.4554 14.3994 17.7771 14.3994 18.1732C14.3994 18.5695 14.721 18.891 15.1172 18.891C15.5134 18.891 15.835 18.5695 15.835 18.1732C15.835 17.7771 15.5134 17.4554 15.1172 17.4554ZM15.1172 19.7718C14.721 19.7718 14.3994 20.0934 14.3994 20.4896C14.3994 20.8857 14.721 21.2073 15.1172 21.2073C15.5134 21.2073 15.835 20.8857 15.835 20.4896C15.835 20.0934 15.5134 19.7718 15.1172 19.7718ZM15.1245 22.11C13.7645 22.1265 12.4181 23.62 10.6823 26.543H19.6472C17.8587 23.5546 16.4845 22.0936 15.1245 22.11Z" fill="#F39C12"/>
</svg>
