<svg width="71" height="70" viewBox="0 0 71 70" fill="none" xmlns="http://www.w3.org/2000/svg">
<path d="M35.5 64.1665C51.6088 64.1665 64.6667 53.3938 64.6667 40.104C64.6667 30.7094 58.1406 22.8971 48.625 18.9348L43.5208 21.1456L44.25 29.1665L34.7708 26.2498L25.2917 29.1665V21.1456L20.9167 18.9348C12.1988 23.0954 6.33334 31.1979 6.33334 40.104C6.33334 53.3938 19.3913 64.1665 35.5 64.1665Z" stroke="#F39C12" stroke-width="4" stroke-linecap="round" stroke-linejoin="round"/>
<path d="M34.7709 5.83325L40.3256 13.2955L53 14.452L43.7586 21.121L46.4375 30.6249L34.7709 26.2499L23.1042 30.6249L25.7831 21.121L16.5417 14.452L29.2161 13.2955L34.7709 5.83325Z" stroke="#F39C12" stroke-width="4" stroke-linecap="round" stroke-linejoin="round"/>
</svg>
