<svg width="30" height="30" viewBox="0 0 30 30" fill="none" xmlns="http://www.w3.org/2000/svg">
<path d="M11.0912 16.1251L3.54124 8.57505C2.87389 7.90754 2.49904 7.00226 2.49916 6.05836C2.49927 5.11447 2.87435 4.20928 3.54186 3.54193C4.20938 2.87458 5.11466 2.49973 6.05856 2.49985C7.00245 2.49996 7.90764 2.87504 8.57499 3.54255L16.1237 11.0913M25.6862 25.6851C24.175 27.1963 19.8462 23.8726 17.6337 21.6601C15.4212 19.4476 11.0912 14.1101 12.6012 12.6013M25.6862 25.6851C27.1975 24.1751 23.8725 19.8476 21.66 17.6338C19.4462 15.4213 14.1112 11.0901 12.6012 12.6013M25.6862 25.6851C22.9075 28.4651 17.9012 27.9663 14.705 24.7701C11.5087 21.5726 9.82249 15.3801 12.6012 12.6013M25.6862 25.6851C28.4662 22.9063 27.9662 17.9013 24.77 14.7051C21.5737 11.5076 15.38 9.82131 12.6012 12.6013" stroke="#F39C12" stroke-width="1.875"/>
</svg>
