<svg width="35" height="35" viewBox="0 0 35 35" fill="none" xmlns="http://www.w3.org/2000/svg">
<path fill-rule="evenodd" clip-rule="evenodd" d="M16.3815 5.32874C20.405 1.30666 26.9471 0.466661 30.7417 4.25833C34.5333 8.04999 33.6962 14.5935 29.6727 18.6156C26.9777 21.3106 22.6217 23.1554 18.9044 23.0227C18.5789 23.0114 18.2543 22.9836 17.9317 22.9396L10.0042 30.8671C9.22255 31.6309 8.17128 32.0558 7.07842 32.0495C5.98556 32.0432 4.93925 31.6063 4.16647 30.8335C3.39368 30.0607 2.95676 29.0144 2.95048 27.9216C2.9442 26.8287 3.36906 25.7774 4.13291 24.9958L12.059 17.0698C12.015 16.7481 11.9873 16.4244 11.9758 16.1C11.8431 12.3812 13.6865 8.02374 16.3815 5.32874ZM17.9287 6.87458C20.3204 4.48291 23.5375 3.59916 26.18 4.19124C25.7835 4.37991 25.3961 4.58723 25.0192 4.81249C23.1117 5.94416 21.1327 7.62416 19.7983 8.95708C18.4683 10.2885 16.5069 12.549 15.0908 14.7262C14.7583 15.2381 14.4448 15.7617 14.175 16.2765C14.1693 16.1915 14.1649 16.1064 14.1619 16.0212C14.0525 12.9617 15.6246 9.1802 17.9287 6.87458ZM28.3383 5.7327C28.9348 5.6102 29.1258 5.74145 29.1929 5.80562C29.26 5.8727 29.3898 6.06666 29.2673 6.66166C29.1477 7.25083 28.8152 8.00624 28.3062 8.86374C27.2956 10.57 25.7454 12.406 24.4971 13.6544C23.2458 14.9042 21.1035 16.7606 19.0823 18.076C18.0629 18.7381 17.1398 19.2194 16.4135 19.441C16.0519 19.5519 15.7967 19.5796 15.6362 19.5679C15.5894 19.5658 15.5431 19.5565 15.4992 19.5402C15.49 19.5371 15.4815 19.5322 15.4744 19.5256C15.4677 19.518 15.4627 19.5091 15.4598 19.4994C15.4436 19.4559 15.4343 19.4101 15.4321 19.3637C15.4204 19.2033 15.4467 18.9481 15.5575 18.5865C15.7806 17.8602 16.2619 16.9371 16.9254 15.9177C18.2394 13.8979 20.0958 11.7542 21.3456 10.5044C22.5954 9.25604 24.4315 7.70437 26.1362 6.69374C26.9952 6.18333 27.7506 5.85374 28.3383 5.7327ZM20.2737 19.9092C19.7633 20.2417 19.2398 20.5552 18.725 20.825C18.8096 20.8294 18.8942 20.8352 18.9802 20.8381C22.0398 20.9475 25.8198 19.3754 28.124 17.0712C30.5171 14.6781 31.4023 11.4625 30.8087 8.81999C30.62 9.21647 30.4127 9.60385 30.1875 9.98083C29.0558 11.8883 27.3773 13.8673 26.0429 15.2017C24.7115 16.5331 22.451 18.4931 20.2737 19.9092Z" fill="#F39C12"/>
</svg>
